<?xml  version="1.0" encoding="UTF-8"?>
<!DOCTYPE svg PUBLIC "-//W3C//DTD SVG 1.0//EN" "http://www.w3.org/TR/2001/REC-SVG-20010904/DTD/svg10.dtd" >
<svg xmlns="http://www.w3.org/2000/svg" >
<metadata>
<version>1.0</version>
<id><![CDATA[Avenir Next Rounded W01 MedIt]]></id>
<vendor>Monotype Imaging Inc.</vendor>
<credits>
<name>Fonts.com WebFonts</name>
<URL>http://webfonts.fonts.com</URL>
<role>Home of the Web fonts</role>
</credits>
<license>
<URL>http://webfonts.fonts.com/Legal</URL>
</license>
<copyright><![CDATA[Copyright © 2012 Linotype GmbH, www.linotype.com. All rights reserved. This font software may not be reproduced, modified, disclosed or transferred without the express written approval of Linotype GmbH. Avenir is a trademark of Linotype GmbH registered in the U.S. Patent and Trademark Office and may be registered in certain other jurisdictions. This typeface is original artwork of Adrian Frutiger, Akira Kobayashi. The design may be protected in certain jurisdictions.]]></copyright>
<trademark><![CDATA[Avenir is a trademark of Linotype GmbH registered in the U.S. Patent and Trademark Office and may be registered in certain other jurisdictions.]]></trademark>
<licensee>
<name></name>
</licensee>
</metadata>
<defs >
<font horiz-adv-x="537" id="10715360-8cdd-4086-90bf-bc742efc57fd">
<font-face font-family="" panose-1="2 11 6 3 2 2 2 9 2 4" ascent="951" descent="-258" units-per-em="1000" alphabetic="0">
</font-face>
<missing-glyph horiz-adv-x="0" />

<glyph unicode="&#xA;" />
<glyph unicode="&#xD;" horiz-adv-x="0" />
<glyph unicode=" " horiz-adv-x="250" />
<glyph unicode="!" horiz-adv-x="287" d="M181 249Q178 232 172 222T158 207T143 201T129 199Q117 199 102 208T86 241Q86 243 86 249T89 267L160 666Q163 683 169 693T182 708T198 714T212 716Q218 716 225 714T238 707T249 693T254 673Q254 671 254 666T251 648L181 249ZM170 61Q170 35 151 15T106 -5Q80 -5 61 11T42 57Q42 86 62 104T108 123Q134 123 152 107T170 61Z"  />
<glyph unicode="&quot;" horiz-adv-x="425" d="M147 673Q152 702 166 709T191 716Q201 716 214 709T227 679Q227 677 227 673T225 660L195 493Q192 479 187 471T176 458T163 452T151 451Q141 451 128 458T115 487Q115 489 115 493T117 507L147 673ZM307 673Q312 702 326 709T351 716Q361 716 374 709T387 679Q387 677 387 673T385 660L355 493Q352 479 347 471T336 458T323 452T311 451Q301 451 288 458T275 487Q275 489 275 493T277 507L307 673Z"  />
<glyph unicode="#" horiz-adv-x="573" d="M216 283H335L380 426H261L216 283ZM476 498H529Q553 498 560 486T568 465Q568 454 560 440T525 426H453L408 283H464Q488 283 495 272T503 251Q503 245 501 238T495 225T481 215T459 211H387L327 25Q320 4 309 -2T288 -8Q275 -8 266 0T256 24Q256 27 256 32T260 47L313 211H194L135 25Q128 4 117 -2T96 -8Q83 -8 74 0T64 24Q64 27 64 32T68 47L120 211H61Q37 211 30 223T23 244Q23 255 31 269T66 283H142L187 426H125Q101 426 94 437T87 458Q87 464 88 471T95 484T108 494T130 498H210L269 683Q276 704 287 710T308 716Q321 716 330 708T340 684Q340 681 340 676T336 661L284 498H402L461 683Q468 704 479 710T500 716Q513 716 522 708T532 684Q532 681 532 676T528 661L476 498Z"  />
<glyph unicode="$" horiz-adv-x="595" d="M50 54Q39 65 35 75T30 94Q30 113 43 126T76 139Q84 139 92 136T112 122Q135 99 164 85T229 69L274 324Q242 335 212 350T158 387T121 438T107 505Q107 549 123 587T169 654T243 700T343 720L353 775Q356 792 364 796T378 800Q385 800 392 795T399 779Q399 777 399 773T397 764L389 720Q428 717 461 705T518 674Q533 662 537 653T542 633Q542 614 530 602T499 590Q492 590 483 593T459 607Q441 621 421 629T376 639L333 399Q369 385 400 368T454 329T490 277T503 209Q503 169 489 131T444 63T369 13T261 -11L251 -67Q248 -84 240 -88T226 -92Q219 -92 212 -87T205 -71Q205 -69 205 -65T207 -55L215 -11Q167 -8 125 7T50 54ZM275 69Q304 70 328 80T369 108T397 148T407 198Q407 242 382 267T317 309L275 69ZM329 639Q304 637 281 629T240 606T212 569T201 517Q201 476 224 453T289 414L329 639Z"  />
<glyph unicode="%" horiz-adv-x="868" d="M206 -6Q193 -23 184 -28T166 -33Q150 -33 141 -24T131 2Q131 7 133 14T144 33L658 707Q671 724 680 729T698 734Q714 734 723 725T733 700Q733 695 731 688T720 668L206 -6ZM415 574Q415 530 400 493T359 427T296 382T215 366Q181 366 152 377T102 408T69 455T57 515Q57 558 72 595T114 660T178 704T259 720Q293 720 322 710T371 680T403 634T415 574ZM326 560Q326 592 306 614T250 637Q205 637 177 605T148 525Q148 493 167 471T222 449Q268 449 297 481T326 560ZM813 196Q813 152 798 115T757 49T694 4T613 -12Q579 -12 550 -1T500 30T467 77T455 137Q455 180 470 217T512 282T576 326T657 342Q691 342 720 332T769 302T801 256T813 196ZM724 182Q724 214 704 236T648 259Q603 259 575 227T546 147Q546 115 565 93T620 71Q666 71 695 103T724 182Z"  />
<glyph unicode="&amp;" horiz-adv-x="722" d="M523 174L611 72Q622 60 624 52T627 36Q627 19 615 6T583 -8Q575 -8 566 -5T545 11L467 103Q408 38 352 13T236 -13Q190 -13 151 -2T84 33T41 90T25 170Q25 213 41 248T85 311T147 360T220 396Q195 431 184 468T172 538Q172 580 186 614T226 674T285 712T359 726Q396 726 427 716T482 685T519 635T532 569Q532 536 519 508T482 455T425 411T353 372L468 238L563 362Q574 376 584 381T603 386Q621 386 633 375T645 345Q645 339 643 331T633 313L523 174ZM243 69Q290 69 329 92T411 168L270 335Q206 311 165 274T124 176Q124 152 133 132T159 98T197 77T243 69ZM260 544Q260 517 271 488T304 429Q363 452 402 485T442 564Q442 602 420 625T360 649Q315 649 288 619T260 544Z"  />
<glyph unicode="&apos;" horiz-adv-x="265" d="M147 673Q152 702 166 709T191 716Q201 716 214 709T227 679Q227 677 227 673T225 660L195 493Q192 479 187 471T176 458T163 452T151 451Q141 451 128 458T115 487Q115 489 115 493T117 507L147 673Z"  />
<glyph unicode="(" horiz-adv-x="310" d="M104 172Q104 103 117 38T153 -84Q160 -104 160 -112Q160 -128 149 -138T122 -149Q113 -149 103 -145T85 -124Q56 -64 38 12T20 171Q20 246 35 318T77 457T143 585T228 702Q240 717 250 721T268 726Q284 726 293 716T303 691Q303 685 301 678T290 660Q248 608 214 550T155 429T117 301T104 172Z"  />
<glyph unicode=")" horiz-adv-x="310" d="M200 405Q200 474 187 539T151 661Q144 681 144 689Q144 705 155 715T182 726Q191 726 201 722T219 701Q248 641 266 565T284 406Q284 331 269 259T227 120T161 -8T76 -125Q64 -140 54 -144T36 -149Q20 -149 11 -139T1 -114Q1 -108 3 -101T14 -83Q56 -31 90 27T149 148T187 276T200 405Z"  />
<glyph unicode="*" horiz-adv-x="453" d="M202 375Q194 364 185 359T167 354Q150 354 138 365T126 393Q126 398 127 405T137 423L197 503L104 533Q84 540 78 551T72 573Q72 590 83 601T111 612Q114 612 120 611T134 608L224 579V672Q224 686 228 694T239 708T252 714T264 716Q269 716 276 715T289 708T299 695T304 672V579L394 608Q403 611 408 611T416 612Q433 612 444 601T455 573Q455 563 448 551T420 532L331 503L391 423Q399 412 400 405T402 393Q402 376 390 365T361 354Q353 354 344 359T326 375L264 459L202 375Z"  />
<glyph unicode="+" horiz-adv-x="666" d="M374 262V77Q374 63 370 54T359 40T345 34T333 32Q328 32 321 33T308 40T297 54T292 77V262H107Q92 262 84 266T70 277T64 291T62 303Q62 308 63 315T70 328T83 339T107 344H292V529Q292 543 296 552T307 566T321 572T333 574Q338 574 345 573T358 566T369 552T374 529V344H559Q574 344 582 340T596 329T602 315T604 303Q604 298 603 291T596 278T583 267T559 262H374Z"  />
<glyph unicode="&#x2c;" horiz-adv-x="260" d="M57 -106Q45 -129 34 -135T11 -141Q-6 -141 -18 -130T-30 -102Q-30 -97 -29 -91T-23 -74L54 88Q65 111 77 117T102 123Q120 123 133 112T146 82Q146 77 145 70T139 54L57 -106Z"  />
<glyph unicode="-" horiz-adv-x="320" d="M68 205Q54 205 46 209T33 218T27 230T25 241Q25 247 27 254T34 268T48 279T72 284H231Q258 284 265 271T273 248Q273 242 271 235T264 221T250 210T226 205H68Z"  />
<glyph unicode="." horiz-adv-x="260" d="M145 61Q145 35 127 15T81 -5Q55 -5 37 11T18 57Q18 86 38 104T84 123Q110 123 127 107T145 61Z"  />
<glyph unicode="/" horiz-adv-x="380" d="M24 -7Q15 -22 7 -26T-12 -31Q-26 -31 -35 -22T-45 1Q-45 11 -38 24L366 713Q375 729 384 733T402 738Q416 738 425 729T435 706Q435 702 434 696T428 683L24 -7Z"  />
<glyph unicode="0" horiz-adv-x="595" d="M363 726Q416 726 453 707T513 654T548 577T559 483Q559 432 552 375T530 263T490 156T432 67T353 5T251 -18Q198 -18 161 1T99 52T64 127T53 221Q53 273 60 330T82 444T122 551T181 641T261 703T363 726ZM355 646Q310 646 272 610T207 516T165 384T150 235Q150 200 155 169T173 115T207 77T258 63Q303 63 340 99T403 193T445 324T460 473Q460 508 455 539T438 594T405 632T355 646Z"  />
<glyph unicode="1" horiz-adv-x="595" d="M216 507Q205 499 197 496T182 493Q165 493 154 504T143 533Q143 542 147 552T168 575L337 693Q357 707 369 711T392 716Q409 716 424 705T440 667Q440 665 440 660T438 648L332 43Q329 26 323 16T309 0T294 -6T280 -8Q268 -8 253 1T237 35Q237 37 237 43T240 60L334 593L216 507Z"  />
<glyph unicode="2" horiz-adv-x="595" d="M65 0Q33 0 21 16T9 49Q9 62 14 74T38 103L351 371Q379 395 399 416T433 457T452 497T459 541Q459 590 427 617T343 645Q297 645 264 623T211 565Q198 542 187 535T163 528Q146 528 134 538T121 567Q121 574 123 582T131 601Q162 657 217 691T348 726Q393 726 431 714T497 678T540 622T556 548Q556 507 546 475T516 415T468 361T402 303L144 86H441Q455 86 464 82T478 72T484 59T486 47Q486 40 484 32T477 17T461 5T436 0H65Z"  />
<glyph unicode="3" horiz-adv-x="595" d="M264 410Q300 410 332 417T388 440T426 483T440 549Q440 594 410 620T332 646Q297 646 268 634T216 592Q199 572 178 572Q161 572 149 583T137 611Q137 630 154 648Q190 688 237 707T339 726Q379 726 414 715T477 681T519 626T535 551Q535 479 494 433T386 370V368Q437 356 469 316T502 219Q502 165 484 122T431 47T350 -1T246 -18Q181 -18 131 7T52 77Q39 97 39 115Q39 135 52 147T84 159Q95 159 105 154T127 129Q147 96 180 80T252 64Q323 64 363 103T404 209Q404 240 393 262T363 300T317 322T259 329Q245 329 237 333T224 343T218 356T216 368Q216 373 218 380T225 394T239 405T264 410Z"  />
<glyph unicode="4" horiz-adv-x="595" d="M407 578H404L114 242H347L407 578ZM405 41Q402 24 396 15T383 0T368 -6T355 -8Q343 -8 329 1T314 35Q314 37 314 42T316 58L333 159H66Q47 159 36 164T18 177T10 193T8 209Q8 222 13 234T32 263L382 671Q407 700 423 708T455 716Q462 716 471 714T489 705T504 688T510 658Q510 654 510 646T507 629L438 242H498Q512 242 520 238T533 228T539 215T541 203Q541 197 539 190T532 175T518 164T493 159H425L405 41Z"  />
<glyph unicode="5" horiz-adv-x="595" d="M239 64Q280 64 311 77T364 113T397 168T408 235Q408 268 397 293T366 337T320 364T262 373Q245 373 227 371T192 363Q178 359 169 358T155 357Q151 357 145 358T133 362T123 372T119 390Q119 395 122 412L170 653Q176 681 189 694T230 708H497Q511 708 519 704T533 694T539 682T541 670Q541 663 539 655T532 640T516 629T491 624H251L212 437Q230 443 251 446T295 449Q337 449 375 436T442 398T489 335T507 249Q507 189 488 140T433 55T348 1T240 -18Q176 -18 127 6T51 68Q37 87 37 104Q37 123 49 136T81 149Q92 149 102 145T124 123Q143 96 172 80T239 64Z"  />
<glyph unicode="6" horiz-adv-x="595" d="M244 420L245 418Q259 426 277 430T316 434Q363 434 400 419T464 378T505 317T519 241Q519 186 500 139T447 57T363 2T252 -18Q203 -18 162 -3T92 40T46 106T29 191Q29 243 53 296T130 412L359 689Q373 706 383 711T404 716Q421 716 433 705T446 675Q446 668 443 659T431 639L244 420ZM125 190Q125 162 135 139T162 98T204 71T256 61Q294 61 325 74T377 110T411 165T423 234Q423 262 414 285T388 325T348 351T298 361Q260 361 228 348T173 312T138 257T125 190Z"  />
<glyph unicode="7" horiz-adv-x="595" d="M178 24Q165 4 153 -2T129 -8Q109 -8 96 4T83 37Q83 43 85 52T95 72L468 623H169Q155 623 146 627T132 637T126 650T124 662Q124 668 126 676T133 691T149 703T175 708H527Q545 708 555 703T572 690T580 674T582 660Q582 652 580 643T569 621L178 24Z"  />
<glyph unicode="8" horiz-adv-x="595" d="M549 556Q549 518 537 488T505 435T460 396T406 371L407 369Q454 355 485 315T516 220Q516 163 495 119T439 45T357 -2T257 -18Q218 -18 180 -7T112 27T64 85T45 171Q45 213 59 247T97 309T152 353T218 378V381Q179 398 155 433T130 514Q130 563 148 602T197 669T269 711T356 726Q395 726 430 716T491 684T533 631T549 556ZM458 542Q458 593 428 619T349 646Q320 646 296 636T255 607T229 566T219 515Q219 473 247 444T323 414Q352 414 377 424T420 453T448 494T458 542ZM423 218Q423 269 390 301T303 334Q267 334 237 323T185 290T151 241T138 180Q138 123 173 93T261 62Q300 62 330 74T380 107T412 156T423 218Z"  />
<glyph unicode="9" horiz-adv-x="595" d="M251 19Q237 1 226 -3T205 -8Q188 -8 176 3T163 33Q163 40 165 49T178 69L367 288L365 290Q351 283 333 279T295 274Q248 274 210 289T146 330T105 391T91 467Q91 522 110 569T163 651T247 706T358 726Q407 726 448 711T518 668T564 602T581 517Q581 465 557 413T480 297L251 19ZM486 518Q486 546 476 569T448 610T406 637T354 647Q316 647 285 634T232 598T198 543T186 474Q186 446 195 423T222 383T262 357T312 347Q350 347 382 360T437 396T473 451T486 518Z"  />
<glyph unicode=":" horiz-adv-x="300" d="M170 61Q170 35 151 15T106 -5Q80 -5 61 11T42 57Q42 86 62 104T108 123Q134 123 152 107T170 61ZM227 417Q227 391 209 371T163 351Q137 351 119 367T100 413Q100 442 120 461T166 480Q192 480 209 463T227 417Z"  />
<glyph unicode=";" horiz-adv-x="300" d="M227 417Q227 391 209 371T163 351Q137 351 119 367T100 413Q100 442 120 461T166 480Q192 480 209 463T227 417ZM73 -106Q61 -129 50 -135T27 -141Q10 -141 -2 -130T-14 -102Q-14 -97 -13 -91T-7 -74L70 88Q81 111 93 117T118 123Q136 123 149 112T162 82Q162 77 161 70T155 54L73 -106Z"  />
<glyph unicode="&lt;" horiz-adv-x="666" d="M103 260Q83 268 77 280T71 303Q71 314 77 325T103 346L530 538Q540 543 546 544T557 545Q574 545 584 534T595 507Q595 498 590 488T568 470L200 303L568 136Q585 128 590 118T595 99Q595 83 585 72T557 61Q552 61 546 62T530 68L103 260Z"  />
<glyph unicode="=" horiz-adv-x="666" d="M116 345Q102 345 93 349T79 360T73 374T71 386Q71 391 72 398T79 411T93 421T116 426H550Q578 426 586 411T595 386Q595 381 594 374T587 361T573 350T550 345H116ZM116 180Q102 180 93 184T79 195T73 208T71 220Q71 225 72 232T79 245T93 256T116 261H550Q564 261 573 257T587 246T593 232T595 220Q595 210 587 195T550 180H116Z"  />
<glyph unicode="&gt;" horiz-adv-x="666" d="M136 68Q126 63 120 62T109 61Q92 61 82 72T71 99Q71 108 76 118T98 136L466 303L98 470Q81 478 76 488T71 507Q71 523 81 534T109 545Q114 545 120 544T136 538L563 346Q583 338 589 326T595 303Q595 292 589 281T563 260L136 68Z"  />
<glyph unicode="?" horiz-adv-x="500" d="M509 554Q509 492 476 450T384 366Q359 349 343 335T315 307T297 277T287 240Q281 209 265 201T237 192Q226 192 211 201T196 235Q196 252 203 277Q214 319 238 347T294 400L336 433Q365 455 388 481T411 549Q411 591 386 614T315 638Q270 638 241 617T195 561Q184 540 172 533T148 526Q130 526 119 537T107 567Q107 573 109 582T117 603Q148 662 202 692T322 723Q360 723 394 714T453 684T494 632T509 554ZM286 61Q286 35 267 15T222 -5Q196 -5 178 11T159 57Q159 86 178 104T224 123Q250 123 268 107T286 61Z"  />
<glyph unicode="@" horiz-adv-x="800" d="M557 160Q515 160 493 181T477 231H473Q465 219 452 207T423 184T386 167T344 160Q282 160 250 193T217 283Q217 324 232 370T277 457T350 523T448 549Q486 549 513 533T546 491H548L557 513Q564 530 574 536T593 542Q608 542 617 533T627 510Q627 505 626 499T621 485L567 346Q564 339 561 329T553 307T547 284T544 266Q544 246 552 237T581 228Q609 228 633 246T674 295T701 364T711 442Q711 492 693 532T643 599T567 641T469 656Q391 656 327 627T218 548T147 433T121 294Q121 238 140 193T195 117T280 68T391 51Q460 51 517 71T626 128Q636 136 643 138T655 140Q669 140 677 131T685 109Q685 102 682 94T667 76Q607 28 535 5T381 -18Q300 -18 236 5T127 69T60 166T36 291Q36 379 68 458T158 597T295 691T470 726Q540 726 598 707T699 653T764 566T788 449Q788 391 772 339T725 247T652 184T557 160ZM503 411Q503 439 490 459T440 479Q415 479 391 464T347 424T315 365T303 297Q303 272 315 251T363 230Q393 230 418 247T462 290T492 349T503 411Z"  />
<glyph unicode="A" horiz-adv-x="681" d="M615 70Q617 59 618 54T619 43Q619 20 604 6T569 -8Q563 -8 556 -7T541 -1T528 12T519 35L492 175H147L53 26Q40 6 28 -1T4 -8Q-16 -8 -29 4T-42 36Q-42 43 -40 51T-31 71L361 668Q382 700 398 708T430 716Q437 716 446 714T463 706T479 690T490 662L615 70ZM202 261H475L412 593L202 261Z"  />
<glyph unicode="B" horiz-adv-x="633" d="M97 0Q63 0 53 15T42 48Q42 50 42 54T44 67L147 649Q152 679 166 693T212 708H383Q420 708 456 700T522 674T570 626T589 553Q589 482 546 436T433 372V370Q491 361 528 322T565 219Q565 165 543 124T480 56T385 14T263 0H97ZM200 408H337Q362 408 388 414T437 435T474 473T489 532Q489 557 479 575T452 604T410 620T358 626H239L200 408ZM143 83H272Q310 83 345 90T407 114T450 158T466 224Q466 272 430 299T326 326H186L143 83Z"  />
<glyph unicode="C" horiz-adv-x="700" d="M370 -18Q299 -18 241 4T141 66T76 162T53 286Q53 378 85 458T175 597T308 691T473 726Q532 726 584 709T672 657Q685 644 689 634T693 615Q693 595 680 582T648 569Q637 569 628 573T605 590Q581 613 548 627T470 642Q401 642 343 613T243 535T178 425T155 298Q155 250 169 208T212 135T283 85T379 67Q474 67 557 139Q571 150 579 153T595 156Q614 156 625 145T637 115Q637 106 633 95T615 72Q571 32 511 7T370 -18Z"  />
<glyph unicode="D" horiz-adv-x="757" d="M144 86H289Q369 86 429 112T531 183T592 283T613 400Q613 446 598 486T553 557T475 606T362 624H239L144 86ZM386 708Q446 708 505 692T611 640T687 548T716 412Q716 319 684 243T593 113T456 30T284 0H97Q63 0 53 15T42 48Q42 50 42 54T44 67L147 649Q152 679 166 693T212 708H386Z"  />
<glyph unicode="E" horiz-adv-x="582" d="M548 708Q577 708 585 694T593 669Q593 662 591 654T584 639T569 627T543 622H238L201 408H480Q495 408 503 404T517 395T523 383T525 370Q525 357 516 341T475 325H186L144 87H465Q480 87 489 83T503 72T509 59T511 47Q511 41 509 33T501 17T485 5T459 0H97Q63 0 53 15T42 48Q42 50 42 54T44 67L147 649Q152 679 166 693T212 708H548Z"  />
<glyph unicode="F" horiz-adv-x="553" d="M138 45Q135 27 129 17T115 1T99 -6T84 -8Q78 -8 71 -6T57 2T45 16T40 38Q40 40 40 45T43 63L147 649Q152 679 166 693T211 708H542Q556 708 565 704T579 694T585 681T587 669Q587 662 585 654T578 639T562 627T536 622H240L200 401H465Q494 401 502 388T510 363Q510 357 508 349T501 334T485 323T460 318H186L138 45Z"  />
<glyph unicode="G" horiz-adv-x="755" d="M643 84Q639 61 629 48T597 26Q548 4 492 -7T375 -18Q303 -18 244 4T142 66T76 162T53 286Q53 378 85 458T175 597T308 691T473 726Q532 726 586 709T676 659Q691 645 695 634T700 614Q700 594 687 581T654 568Q646 568 637 571T615 586Q587 612 553 627T470 642Q401 642 343 613T243 535T178 425T155 298Q155 249 170 207T215 133T288 85T387 67Q435 67 477 77T551 105L586 303H471Q457 303 448 307T434 317T428 329T426 341Q426 348 428 356T435 371T451 382T476 387H635Q663 387 675 373T687 342Q687 340 687 336T685 324L643 84Z"  />
<glyph unicode="H" horiz-adv-x="719" d="M586 45Q583 27 577 17T563 1T547 -6T532 -8Q526 -8 519 -6T505 2T493 16T488 38Q488 40 488 45T491 63L537 325H187L138 45Q135 27 129 17T115 1T99 -6T84 -8Q78 -8 71 -6T57 2T45 16T40 38Q40 40 40 45T43 63L149 663Q152 681 158 691T172 707T188 714T203 716Q209 716 216 714T230 706T242 692T247 670Q247 668 247 663T244 645L202 411H553L597 663Q600 681 606 691T620 707T636 714T651 716Q657 716 664 714T678 706T690 692T695 670Q695 668 695 663T692 645L586 45Z"  />
<glyph unicode="I" horiz-adv-x="276" d="M138 45Q135 27 129 17T115 1T99 -6T84 -8Q78 -8 71 -6T57 2T45 16T40 38Q40 40 40 45T43 63L149 663Q152 681 158 691T172 707T188 714T203 716Q209 716 216 714T230 706T242 692T247 670Q247 668 247 663T244 645L138 45Z"  />
<glyph unicode="J" horiz-adv-x="491" d="M393 216Q386 178 374 137T337 62T272 5T169 -18Q106 -18 66 6T5 68Q-1 77 -4 87T-7 106Q-7 126 5 138T38 151Q49 151 60 146T81 122Q94 97 115 83T166 68Q200 68 222 80T259 113T282 162T296 221L374 663Q377 681 383 691T397 707T413 714T428 716Q434 716 441 714T455 706T467 692T472 670Q472 668 472 663T469 645L393 216Z"  />
<glyph unicode="K" horiz-adv-x="621" d="M149 663Q152 681 158 691T172 707T188 714T202 716Q208 716 215 714T229 706T241 692T246 670Q246 668 246 663T243 645L198 392H200L555 697Q568 708 578 712T596 716Q616 716 627 704T639 673Q639 665 635 655T616 632L303 376L551 79Q562 67 564 58T567 42Q567 22 554 7T517 -8Q506 -8 495 -4T473 16L195 366H193L137 45Q134 27 128 17T114 1T98 -6T84 -8Q78 -8 71 -6T57 2T45 16T40 38Q40 40 40 45T43 63L149 663Z"  />
<glyph unicode="L" horiz-adv-x="511" d="M149 663Q152 681 158 691T172 707T188 714T202 716Q214 716 230 706T247 670Q247 668 247 663T244 645L144 87H416Q431 87 440 83T454 72T460 59T462 47Q462 41 460 33T452 17T436 5T410 0H97Q63 0 53 15T42 48Q42 50 42 54T44 67L149 663Z"  />
<glyph unicode="M" horiz-adv-x="903" d="M770 44Q767 26 761 16T746 1T730 -6T716 -8Q704 -8 689 1T673 36Q673 38 673 43T676 61L757 520H755L463 37Q446 9 431 1T401 -8Q394 -8 386 -7T370 0T355 14T344 39L220 520H218L134 43Q131 26 125 16T111 0T96 -6T82 -8Q76 -8 69 -6T56 1T45 14T40 35Q40 37 40 42T42 59L147 647Q151 669 159 682T177 703T197 713T215 716Q222 716 231 714T250 706T267 689T280 658L416 116H417L736 653Q760 693 780 704T818 716Q826 716 836 714T854 705T869 687T875 658Q875 653 875 644T872 628L770 44H770Z"  />
<glyph unicode="N" horiz-adv-x="758" d="M146 642Q150 666 158 680T177 703T197 713T216 716Q233 716 251 707T286 663L543 154H545L636 664Q639 682 645 692T659 707T675 714T689 716Q701 716 716 707T732 672Q732 670 732 663T730 647L628 66Q624 42 616 28T597 5T577 -5T559 -8Q542 -8 524 0T488 44L231 561H229L137 44Q134 26 128 16T114 1T98 -6T84 -8Q72 -8 57 1T41 36Q41 38 41 44T43 61L146 642Z"  />
<glyph unicode="O" horiz-adv-x="831" d="M790 421Q790 330 760 250T674 111T544 17T381 -18Q307 -18 247 3T143 65T77 161T53 288Q53 379 84 458T171 597T302 691T465 726Q537 726 597 705T700 643T766 547T790 421ZM688 412Q688 460 673 501T629 574T558 624T460 642Q391 642 335 613T238 535T177 424T155 297Q155 250 170 208T213 135T284 85T383 67Q453 67 509 96T605 173T666 284T688 412Z"  />
<glyph unicode="P" horiz-adv-x="595" d="M137 45Q134 27 128 17T114 1T98 -6T84 -8Q78 -8 71 -6T57 2T45 16T40 38Q40 40 40 45T43 63L147 649Q152 679 166 693T211 708H359Q469 708 528 661T588 530Q588 474 568 433T510 364T420 324T305 311H184L137 45ZM198 393H310Q392 393 441 423T490 519Q490 549 480 569T450 602T405 620T346 625H240L198 393Z"  />
<glyph unicode="Q" horiz-adv-x="827" d="M780 427Q780 358 763 303T719 205T658 133T590 85V82H736Q750 82 758 78T771 68T777 56T779 44Q779 38 777 31T770 16T756 5T731 0H381Q311 0 251 19T148 76T79 169T54 297Q54 387 85 465T170 601T299 692T459 726Q530 726 589 705T690 645T756 551T780 427ZM679 414Q679 462 665 503T622 576T552 624T457 642Q388 642 333 614T237 538T176 432T154 309Q154 259 169 218T215 148T288 102T385 85Q446 85 499 112T593 184T656 288T679 414Z"  />
<glyph unicode="R" horiz-adv-x="612" d="M137 45Q134 27 128 17T114 1T98 -6T83 -8Q77 -8 70 -6T56 2T45 16T40 38Q40 40 40 45T43 63L147 649Q152 679 166 693T211 708H358Q410 708 453 697T526 663T573 608T590 532Q590 486 575 451T534 391T472 349T393 326L521 71Q529 55 529 42Q529 21 515 7T481 -8Q470 -8 458 -3T435 22L293 316H184L137 45ZM198 397H307Q345 397 378 403T436 423T475 461T490 521Q490 577 451 601T343 625H239L198 397Z"  />
<glyph unicode="S" horiz-adv-x="569" d="M101 123Q127 97 161 81T237 65Q267 65 296 73T347 98T382 139T396 197Q396 224 385 244T354 279T310 305T257 327Q226 339 197 354T146 390T111 440T98 509Q98 558 117 598T172 667T255 710T359 726Q407 726 449 712T522 672Q534 661 538 651T543 632Q543 615 531 601T499 587Q491 587 482 590T458 605Q435 622 409 633T349 644Q324 644 298 637T249 614T213 575T198 518Q198 495 206 478T230 448T266 425T312 405Q351 391 384 374T443 333T483 279T498 208Q498 159 480 118T427 46T343 -1T233 -18Q178 -18 125 -1T36 52Q24 63 20 73T16 94Q16 112 29 126T63 141Q71 141 80 138T101 123Z"  />
<glyph unicode="T" horiz-adv-x="535" d="M268 45Q265 27 259 17T244 1T228 -6T214 -8Q208 -8 201 -6T187 2T175 16T170 38Q170 40 170 45T173 63L273 622H94Q80 622 71 626T57 636T51 649T49 661Q49 668 51 676T58 691T74 703T100 708H564Q578 708 587 704T600 694T606 681T608 669Q608 662 606 654T599 639T584 627T558 622H371L268 45Z"  />
<glyph unicode="U" horiz-adv-x="712" d="M623 262Q614 208 593 158T534 68T444 6T317 -18Q254 -18 208 -1T130 46T84 115T68 200Q68 230 74 262L144 663Q147 681 153 691T167 707T183 714T198 716Q204 716 211 714T225 706T237 692T242 670Q242 668 242 663T239 645L172 268Q170 254 169 241T167 215Q167 185 175 159T201 112T249 79T320 67Q372 67 408 84T468 129T505 194T526 268L595 663Q598 681 604 691T618 707T634 714T649 716Q655 716 662 714T676 706T688 692T693 670Q693 668 693 663T690 645L623 262Z"  />
<glyph unicode="V" horiz-adv-x="628" d="M312 45Q291 11 274 2T242 -8Q235 -8 226 -6T208 1T192 18T181 47L75 637Q73 647 73 653T73 664Q73 687 89 701T125 716Q137 716 152 707T172 672L260 127H263L594 677Q609 702 621 709T646 716Q665 716 678 705T691 673Q691 667 689 658T680 639L312 45Z"  />
<glyph unicode="W" horiz-adv-x="982" d="M731 50Q712 12 693 2T660 -8Q653 -8 644 -6T624 2T607 21T597 55L540 570H538L277 50Q257 12 239 2T205 -8Q198 -8 189 -6T170 2T153 21T143 55L81 639Q80 648 80 653T80 663Q80 686 95 701T132 716Q138 716 146 714T161 707T174 693T181 669L229 142H231L484 652Q504 693 523 704T559 716Q567 716 577 714T596 704T613 684T622 649L677 142H679L934 673Q948 701 961 708T986 716Q1003 716 1017 705T1032 672Q1032 660 1025 645L731 50Z"  />
<glyph unicode="X" horiz-adv-x="622" d="M308 296L45 18Q30 1 19 -3T-2 -8Q-21 -8 -33 4T-46 36Q-46 44 -43 54T-27 77L261 375L123 630Q116 643 114 651T112 667Q112 687 125 701T160 716Q171 716 183 711T206 685L334 442L565 690Q580 706 591 711T612 716Q631 716 643 704T655 674Q655 667 652 657T636 633L380 366L538 78Q546 64 547 57T549 41Q549 21 536 7T502 -8Q491 -8 478 -3T454 22L308 296Z"  />
<glyph unicode="Y" horiz-adv-x="560" d="M272 45Q265 9 249 1T219 -8Q213 -8 206 -6T192 2T180 16T175 38Q175 40 175 45T178 63L221 306L64 629Q57 642 55 650T52 666Q52 687 67 701T103 716Q114 716 126 710T148 683L284 386L544 686Q560 705 571 710T593 716Q612 716 624 704T637 673Q637 665 634 655T620 634L319 306L272 45Z"  />
<glyph unicode="Z" horiz-adv-x="580" d="M110 87H469Q483 87 492 83T506 72T512 59T514 47Q514 41 512 33T505 17T489 5T463 0H24Q6 0 -4 5T-21 18T-29 34T-31 48Q-31 59 -25 72T-2 103L475 622H153Q139 622 130 626T116 637T110 649T108 661Q108 668 110 676T117 691T133 703T159 708H559Q577 708 587 703T604 690T612 674T614 661Q614 650 608 637T585 605L110 87Z"  />
<glyph unicode="[" horiz-adv-x="315" d="M32 -156Q3 -156 -5 -143T-14 -116Q-14 -115 -14 -111T-13 -101L125 682Q130 708 142 720T179 732H277Q300 732 306 721T313 702Q313 692 305 679T273 666H206L73 -90H132Q155 -90 161 -101T168 -120Q168 -130 160 -143T128 -156H32Z"  />
<glyph unicode="\" horiz-adv-x="380" d="M18 682Q15 690 15 695T14 702Q14 719 25 729T51 740Q59 740 69 735T86 713L368 26Q371 18 371 13T372 6Q372 -10 361 -20T335 -31Q326 -31 317 -27T299 -4L18 682Z"  />
<glyph unicode="]" horiz-adv-x="315" d="M276 732Q305 732 313 719T322 692Q322 691 322 687T321 677L183 -106Q178 -132 166 -144T129 -156H31Q8 -156 2 -145T-5 -126Q-5 -116 3 -103T35 -90H102L235 666H176Q153 666 147 677T140 696Q140 706 148 719T180 732H276Z"  />
<glyph unicode="^" horiz-adv-x="666" d="M566 365Q574 350 574 339Q574 322 563 312T536 301Q528 301 518 306T499 327L332 610L167 327Q158 311 148 306T130 301Q114 301 103 311T92 338Q92 350 100 365L285 683Q297 703 309 709T333 716Q344 716 356 710T381 683L566 365Z"  />
<glyph unicode="_" horiz-adv-x="500" d="M-37 -138Q-48 -138 -55 -135T-66 -126T-71 -116T-72 -106Q-72 -103 -71 -98T-66 -87T-55 -79T-37 -75H393Q415 -75 421 -87T428 -106Q428 -114 422 -126T393 -138H-37Z"  />
<glyph unicode="`" horiz-adv-x="250" d="M199 627Q212 614 215 606T218 592Q218 578 209 567T184 556Q176 556 168 559T148 573L71 647Q58 659 55 668T51 684Q51 700 61 710T89 722Q96 722 104 720T125 705L199 627Z"  />
<glyph unicode="a" d="M345 228Q306 228 264 225T188 211T131 180T109 128Q109 108 116 96T136 75T164 64T196 61Q227 61 254 71T301 100T334 142T353 193L360 228H345ZM330 30Q330 38 331 45T334 66H332Q298 26 258 8T164 -10Q140 -10 114 -4T67 16T31 55T17 115Q17 173 49 208T131 263T245 289T370 296Q372 310 373 318T374 333Q374 375 348 393T274 412Q248 412 219 404T165 380Q154 374 148 372T135 370Q121 370 112 379T102 404Q102 414 107 423T126 442Q158 463 201 475T287 487Q321 487 352 480T408 456T448 412T463 347Q463 338 462 324T459 299L412 37Q409 22 404 13T393 0T379 -6T367 -8Q356 -8 343 -1T330 30Z"  />
<glyph unicode="b" horiz-adv-x="633" d="M572 282Q572 221 552 168T496 74T411 11T303 -12Q251 -12 205 11T135 80H133L126 40Q123 24 118 15T105 0T90 -6T77 -8Q66 -8 52 1T37 34Q37 36 37 41T40 57L156 714Q159 731 165 741T178 756T194 762T208 764Q213 764 220 762T233 755T244 742T249 721Q249 719 249 714T246 697L191 398H193Q219 436 264 461T365 487Q412 487 450 472T515 430T557 366T572 282ZM477 273Q477 331 443 370T345 410Q305 410 271 394T212 349T172 282T157 202Q157 172 166 147T194 103T237 75T293 64Q335 64 369 80T427 125T464 191T477 273Z"  />
<glyph unicode="c" horiz-adv-x="496" d="M263 65Q292 65 317 75T366 102Q385 114 398 114Q415 114 425 104T435 78Q435 70 431 59T410 37Q380 15 343 1T257 -13Q206 -13 165 2T94 44T49 108T33 192Q33 251 53 304T111 398T202 463T320 487Q359 487 394 477T455 443Q469 430 473 421T477 403Q477 387 466 375T435 362Q427 362 420 365T401 377Q385 391 363 400T315 410Q274 410 240 394T180 349T141 283T127 203Q127 174 135 149T161 106T203 76T263 65Z"  />
<glyph unicode="d" horiz-adv-x="628" d="M446 273Q446 303 437 328T409 372T366 400T310 411Q268 411 234 395T176 350T139 284T126 202Q126 144 160 105T258 65Q297 65 331 81T391 126T431 193T446 273ZM496 40Q493 24 487 15T474 0T459 -6T446 -8Q435 -8 421 1T406 34Q406 35 406 38T407 46L412 76H410Q384 37 338 13T237 -12Q190 -12 152 3T87 45T45 109T30 193Q30 254 50 307T106 401T191 464T300 487Q358 487 400 463T465 396H467L523 714Q526 731 532 741T545 756T561 762T575 764Q586 764 601 755T616 721Q616 719 616 714T613 697L496 40Z"  />
<glyph unicode="e" horiz-adv-x="565" d="M432 54Q355 -13 250 -13Q203 -13 163 1T93 42T47 108T30 197Q30 256 51 309T109 401T197 464T307 487Q398 487 451 438T504 299Q504 291 504 282T502 259Q499 234 487 222T448 209H122Q121 204 121 201T121 193Q121 165 131 142T160 101T204 74T259 64Q298 64 328 77T384 112Q395 122 402 125T418 128Q435 128 444 118T454 93Q454 84 450 75T432 54ZM415 277Q416 284 416 292T417 307Q417 353 387 383T300 414Q266 414 238 402T189 371T153 327T132 277H415Z"  />
<glyph unicode="f" horiz-adv-x="309" d="M145 41Q142 24 136 15T123 0T109 -6T96 -8Q84 -8 70 1T55 34Q55 36 55 41T57 57L117 399H62Q49 399 41 402T29 411T23 422T21 433Q21 439 23 446T30 459T44 469T67 474H129L147 574Q154 611 167 646T204 708T260 751T341 768Q359 768 370 764T388 754T396 741T398 728Q398 713 388 701T351 688H336Q312 688 295 679T267 653T249 616T238 573L220 474H293Q318 474 325 462T333 439Q333 428 325 414T288 399H208L145 41H145Z"  />
<glyph unicode="g" horiz-adv-x="630" d="M498 23Q489 -28 472 -75T422 -159T339 -218T213 -240Q162 -240 112 -224T23 -176Q10 -165 6 -156T2 -136Q2 -119 13 -106T45 -93Q53 -93 61 -96T81 -110Q135 -159 214 -159Q261 -159 294 -146T349 -109T385 -53T406 16L418 79H416Q387 40 343 18T245 -5Q198 -5 160 10T95 53T54 118T39 201Q39 260 59 312T115 403T200 464T308 487Q366 487 409 463T471 397H474L480 434Q483 450 489 459T502 474T517 480T530 482Q541 482 555 473T570 440Q570 438 570 433T567 416L498 23ZM134 208Q134 179 143 155T169 111T211 82T268 71Q308 71 342 87T401 131T440 196T454 274Q454 333 418 372T318 411Q277 411 243 396T185 353T148 289T134 208Z"  />
<glyph unicode="h" horiz-adv-x="581" d="M456 42Q453 25 447 15T434 0T419 -6T405 -8Q399 -8 392 -6T379 1T368 14T363 35Q363 37 363 42T366 59L402 262Q408 296 408 315Q408 356 388 382T316 408Q259 408 219 366T165 251L128 42Q125 25 119 15T106 0T91 -6T77 -8Q71 -8 64 -6T51 1T40 14T35 35Q35 37 35 42T38 59L154 714Q157 731 163 741T176 756T192 762T206 764Q217 764 232 755T247 721Q247 719 247 714T244 697L192 402H194Q217 438 256 462T347 487Q425 487 465 446T505 341Q505 316 501 293L456 42Z"  />
<glyph unicode="i" horiz-adv-x="259" d="M245 647Q245 622 228 604T186 586Q162 586 145 601T127 643Q127 670 145 687T188 705Q212 705 228 689T245 647ZM129 42Q126 25 120 15T107 0T92 -6T78 -8Q72 -8 65 -6T52 1T41 14T36 35Q36 37 36 42T39 59L105 432Q108 449 114 459T127 474T143 480T157 482Q168 482 183 473T198 439Q198 437 198 432T195 415L129 42Z"  />
<glyph unicode="j" horiz-adv-x="259" d="M245 647Q245 622 228 604T186 586Q162 586 145 601T127 643Q127 670 145 687T188 705Q212 705 228 689T245 647ZM111 -62Q105 -98 94 -130T64 -187T15 -225T-59 -240Q-89 -240 -103 -228T-117 -199Q-117 -184 -107 -172T-75 -160H-62Q-22 -160 -6 -134T19 -59L106 432Q109 449 115 459T128 474T144 480T158 482Q169 482 184 473T199 439Q199 437 199 432T196 415L111 -62Z"  />
<glyph unicode="k" horiz-adv-x="504" d="M155 714Q158 731 164 741T177 756T193 762T207 764Q218 764 233 755T248 721Q248 719 248 714T245 697L169 267H172L413 466Q432 482 449 482Q467 482 478 471T489 443Q489 435 485 425T466 404L272 254L428 72Q438 61 440 52T443 36Q443 19 431 6T399 -8Q388 -8 378 -4T357 15L168 246H165L129 42Q126 25 120 15T107 0T92 -6T78 -8Q66 -8 51 1T36 35Q36 37 36 42T39 59L155 714Z"  />
<glyph unicode="l" horiz-adv-x="260" d="M155 714Q158 731 164 741T177 756T193 762T207 764Q213 764 220 762T233 755T244 742T249 721Q249 719 249 714T246 697L130 42Q127 25 121 15T108 0T93 -6T79 -8Q67 -8 52 1T36 35Q36 37 36 42T39 59L155 714Z"  />
<glyph unicode="m" horiz-adv-x="884" d="M104 434Q107 450 113 459T126 474T140 480T153 482Q164 482 178 473T192 440Q192 439 192 436T191 428L186 397H188Q213 435 251 461T343 487Q392 487 430 464T480 390Q509 436 551 461T648 487Q728 487 768 446T809 341Q809 329 808 318T804 293L760 42Q757 25 751 15T738 0T723 -6T709 -8Q703 -8 696 -6T683 1T672 14T667 35Q667 37 667 42T670 59L706 262Q708 276 709 289T711 315Q711 356 691 382T620 409Q587 409 563 396T521 360T494 311T478 256L440 42Q437 25 431 15T418 0T403 -6T389 -8Q383 -8 376 -6T363 1T352 14T347 35Q347 37 347 41T350 59L390 281Q392 293 393 304T395 325Q395 363 376 386T312 409Q286 409 262 398T219 366T185 316T165 252L128 42Q125 25 119 15T106 0T91 -6T77 -8Q71 -8 64 -6T51 1T40 14T35 35Q35 37 35 41T38 59L104 434Z"  />
<glyph unicode="n" horiz-adv-x="581" d="M188 397Q214 438 254 462T346 487Q424 487 464 446T505 341Q505 316 501 293L456 42Q453 25 447 15T434 0T419 -6T405 -8Q399 -8 392 -6T379 1T368 14T363 35Q363 37 363 41T366 59L402 262Q404 276 406 289T408 315Q408 356 388 382T316 408Q260 408 219 366T165 252L128 42Q125 25 119 15T106 0T91 -6T77 -8Q71 -8 64 -6T51 1T40 14T35 35Q35 37 35 41T38 59L104 434Q107 450 113 459T126 474T140 480T153 482Q164 482 178 473T192 440Q192 439 192 436T191 428L186 397H188Z"  />
<glyph unicode="o" horiz-adv-x="600" d="M539 282Q539 222 519 169T461 75T371 11T255 -13Q206 -13 165 2T94 44T47 110T30 194Q30 253 50 306T108 399T198 463T315 487Q364 487 405 472T476 430T522 366T539 282ZM445 273Q445 302 436 327T409 370T366 399T309 410Q268 410 234 393T176 348T138 282T124 202Q124 142 160 104T260 65Q301 65 335 81T393 126T431 193T445 273Z"  />
<glyph unicode="p" horiz-adv-x="632" d="M571 281Q571 220 551 167T494 73T409 10T301 -13Q243 -13 201 11T136 77H134L86 -198Q83 -215 77 -225T64 -240T49 -246T35 -248Q23 -248 8 -239T-7 -205Q-7 -203 -7 -198T-4 -181L105 433Q108 449 114 459T127 474T142 480T155 482Q166 482 180 473T195 440Q195 438 195 436T194 428L189 398H191Q217 436 263 461T364 486Q411 486 449 471T514 429T556 365T571 281ZM475 272Q475 330 441 369T343 409Q304 409 270 393T210 348T170 281T155 201Q155 171 164 146T192 102T235 74T292 63Q333 63 367 79T425 124T462 190T475 272Z"  />
<glyph unicode="q" horiz-adv-x="626" d="M455 -198Q452 -215 446 -225T433 -240T418 -246T404 -248Q398 -248 391 -246T378 -239T367 -226T362 -205Q362 -203 362 -198T365 -181L412 76H410Q384 37 338 13T237 -12Q190 -12 152 3T87 45T45 109T30 193Q30 254 50 307T106 401T191 464T300 487Q352 487 398 463T467 394H469L476 434Q479 450 485 459T498 474T513 480T526 482Q537 482 551 473T566 440Q566 438 566 434T563 417L455 -198ZM446 273Q446 303 437 328T409 372T366 400T310 411Q268 411 234 395T176 350T139 284T126 202Q126 144 160 105T258 65Q297 65 331 81T391 126T431 193T446 273Z"  />
<glyph unicode="r" horiz-adv-x="343" d="M187 394Q215 440 250 463T324 487Q353 487 363 475T374 445Q374 428 363 415T324 401H311Q257 401 217 362T163 249L127 42Q124 25 118 15T105 0T90 -6T76 -8Q70 -8 63 -6T50 1T39 14T34 35Q34 37 34 42T37 58L103 434Q106 450 112 459T125 474T139 480T152 482Q163 482 177 473T191 440Q191 439 191 436T190 428L185 394H187Z"  />
<glyph unicode="s" horiz-adv-x="444" d="M180 -15Q132 -15 92 -2T21 38Q7 50 3 60T-1 79Q-1 96 10 108T42 121Q50 121 58 118T76 106Q97 86 122 74T180 62Q222 62 253 79T284 132Q284 163 260 179T186 211Q158 220 135 230T95 255T69 290T59 339Q59 374 75 401T118 448T180 477T254 487Q295 487 327 477T383 446Q396 435 400 425T404 407Q404 390 393 379T364 367Q357 367 350 370T331 382Q314 396 294 404T246 413Q230 413 213 410T182 399T158 378T149 347Q149 317 171 304T234 280Q302 260 338 229T375 139Q375 100 358 71T314 23T251 -5T180 -15Z"  />
<glyph unicode="t" horiz-adv-x="324" d="M170 -8Q147 -8 126 -3T90 15T65 46T56 94Q56 105 57 117T60 141L106 398H56Q43 398 35 402T23 411T17 422T15 433Q15 439 17 446T24 459T38 469T61 474H119L135 569Q138 585 144 595T157 610T172 616T186 618Q191 618 198 616T211 610T221 597T226 576Q226 574 226 569T224 552L210 474H288Q314 474 321 462T329 439Q329 433 327 426T320 413T306 403T283 398H198L153 149Q150 132 150 118Q150 90 164 80T199 69Q204 69 207 69T214 71Q224 73 229 73Q245 73 253 64T262 40Q262 29 256 19T236 4Q209 -8 170 -8Z"  />
<glyph unicode="u" horiz-adv-x="581" d="M360 77Q334 36 294 12T202 -13Q124 -13 84 28T43 133Q43 145 44 156T48 181L92 432Q95 449 101 459T114 474T129 480T143 482Q149 482 156 480T169 473T180 460T185 439Q185 437 185 433T182 415L146 212Q144 198 143 185T141 159Q141 118 160 92T232 66Q288 66 329 108T383 222L420 432Q423 449 429 459T442 474T457 480T471 482Q477 482 484 480T497 473T508 460T513 439Q513 437 513 433T510 415L444 40Q441 24 435 15T422 0T408 -6T395 -8Q384 -8 370 1T356 34Q356 35 356 38T357 46L362 77H360Z"  />
<glyph unicode="v" horiz-adv-x="490" d="M252 42Q232 10 216 1T182 -8Q175 -8 166 -6T148 2T131 18T119 46L37 413Q34 426 34 435Q34 458 49 470T82 482Q93 482 107 475T126 444L194 100H196L403 447Q416 469 428 475T451 482Q471 482 482 471T493 443Q493 438 491 431T484 415L252 42Z"  />
<glyph unicode="w" horiz-adv-x="760" d="M553 43Q535 9 519 1T486 -8Q479 -8 470 -6T453 2T438 18T428 47L384 356H382L216 43Q198 9 182 1T149 -8Q142 -8 133 -6T116 2T100 18T91 47L43 414Q42 421 42 426T42 434Q42 457 57 469T91 482Q103 482 117 474T135 438L168 112H170L338 433Q355 464 370 473T400 482Q414 482 431 473T453 431L499 112H502L672 445Q684 468 695 475T719 482Q738 482 749 471T760 442Q760 438 759 431T753 414L553 43Z"  />
<glyph unicode="x" horiz-adv-x="489" d="M221 187L41 10Q30 -1 22 -4T4 -8Q-13 -8 -24 3T-35 32Q-35 38 -32 47T-18 67L175 252L78 405Q70 418 68 425T65 440Q65 457 77 469T109 482Q118 482 128 478T150 454L240 305L399 463Q411 474 420 478T438 482Q455 482 465 471T476 443Q476 437 474 429T460 409L286 244L399 67Q406 56 408 50T410 36Q410 19 398 6T366 -8Q357 -8 346 -4T326 17L221 187Z"  />
<glyph unicode="y" horiz-adv-x="495" d="M172 -112Q154 -142 137 -165T101 -205T57 -231T3 -240Q-59 -240 -59 -199Q-59 -185 -49 -172T-13 -159H1Q33 -158 53 -138T97 -80L144 0L47 410Q45 421 44 425T43 435Q43 456 57 469T91 482Q102 482 116 475T136 444L207 102H209L411 449Q422 469 434 475T457 482Q476 482 487 471T499 441Q499 437 498 430T491 414L172 -112Z"  />
<glyph unicode="z" horiz-adv-x="461" d="M319 398H104Q91 398 84 402T72 411T66 422T64 433Q64 439 66 446T73 459T86 469T109 474H405Q419 474 428 470T442 459T448 445T450 434Q450 426 446 415T426 389L110 78H349Q374 78 381 65T389 42Q389 36 387 29T380 16T366 5T343 0H25Q10 0 1 4T-13 16T-19 29T-21 41Q-21 50 -17 61T4 88L319 398Z"  />
<glyph unicode="{" horiz-adv-x="315" d="M133 -156Q77 -156 48 -134T18 -62Q18 -47 21 -27L54 157Q56 166 56 172T56 185Q56 232 23 246Q8 252 2 262T-5 284Q-5 318 33 328Q58 335 75 357T100 416L132 603Q143 664 180 698T283 732H304Q329 732 336 721T343 700Q343 689 335 676T299 663H283Q265 663 253 657T233 641T221 618T214 591L182 409Q176 376 161 354T129 318T95 297T67 289V287Q80 285 93 279T117 262T135 235T142 195Q142 190 141 180T138 161L107 -15Q105 -25 105 -31T104 -45Q104 -63 112 -75T148 -87H159Q184 -87 191 -98T198 -119Q198 -130 190 -143T155 -156H133Z"  />
<glyph unicode="|" horiz-adv-x="222" d="M70 713Q70 727 74 736T85 750T99 756T111 758Q116 758 123 757T136 750T147 736T152 713V-213Q152 -227 148 -236T137 -250T123 -256T111 -258Q106 -258 99 -257T86 -250T75 -236T70 -213V713Z"  />
<glyph unicode="}" horiz-adv-x="315" d="M182 732Q238 732 267 710T297 638Q297 622 294 603L261 419Q259 410 259 404T259 391Q259 344 292 330Q307 324 313 314T320 292Q320 258 282 248Q257 241 240 219T215 160L183 -27Q172 -88 135 -122T32 -156H11Q-14 -156 -21 -145T-28 -124Q-28 -113 -20 -100T16 -87H32Q50 -87 62 -81T82 -65T94 -42T101 -15L133 167Q139 200 154 222T186 258T220 278T248 287V289Q235 291 222 297T198 314T180 341T173 381Q173 386 174 396T177 415L208 591Q211 610 211 621Q211 639 203 651T167 663H156Q131 663 124 674T117 695Q117 706 125 719T160 732H182Z"  />
<glyph unicode="~" horiz-adv-x="666" d="M436 307Q458 307 475 318T506 348Q515 361 523 365T541 370Q557 370 567 360T578 334Q578 319 566 300Q544 267 513 246T440 224Q414 224 388 231T326 261Q295 280 274 290T230 300Q208 300 191 289T161 258Q144 236 126 236Q109 236 99 246T89 272Q89 279 91 287T101 306Q123 339 154 361T227 383Q253 383 280 375T339 346Q369 327 391 317T436 307Z"  />
<glyph unicode="&#xA0;" horiz-adv-x="250" />
<glyph unicode="&#xA1;" horiz-adv-x="287" d="M83 238Q86 255 92 265T106 280T121 286T135 288Q147 288 162 279T178 246Q178 244 178 238T175 220L104 -179Q101 -196 95 -206T82 -221T66 -227T52 -229Q46 -229 39 -227T26 -220T15 -206T10 -186Q10 -184 10 -179T13 -161L83 238ZM94 426Q94 452 113 472T158 492Q184 492 203 476T222 430Q222 401 202 383T156 364Q130 364 112 380T94 426Z"  />
<glyph unicode="&#xA2;" horiz-adv-x="595" d="M288 -58Q285 -77 276 -81T261 -86Q253 -86 246 -81T238 -62Q238 -60 238 -58T239 -50L246 -9Q165 4 118 57T70 192Q70 248 88 299T141 390T224 455T333 486L341 530Q344 548 353 552T368 557Q376 557 383 552T391 533Q391 532 391 529T390 521L384 485Q416 482 444 472T493 443Q506 431 510 422T515 403Q515 387 504 375T473 362Q465 362 457 364T438 377Q410 403 371 409L310 65Q336 66 359 76T404 102Q414 109 421 111T436 114Q453 114 463 104T473 78Q473 70 469 59T448 37Q419 15 382 2T296 -13L288 -58ZM320 408Q285 403 257 385T208 338T176 275T164 203Q164 155 187 117T260 69L320 408Z"  />
<glyph unicode="&#xA3;" horiz-adv-x="595" d="M51 0Q24 0 16 13T8 38Q8 44 10 51T17 66T32 77T57 82H124L166 326H106Q82 326 75 338T68 359Q68 370 76 383T110 397H177L193 485Q199 522 214 564T258 643T331 702T440 726Q474 726 503 719T557 696Q573 686 578 676T583 656Q583 639 572 627T542 614Q528 614 510 625Q494 636 477 641T436 647Q395 647 369 630T325 587T300 532T287 479L273 397H404Q428 397 435 385T442 364Q442 353 434 340T400 326H262L220 82H441Q468 82 476 69T484 45Q484 39 482 31T475 16T460 5T435 0H51Z"  />
<glyph unicode="&#xA4;" horiz-adv-x="890" d="M446 478Q409 478 379 465T328 428T295 374T283 309Q283 274 294 243T327 188T379 152T446 138Q483 138 513 151T565 188T597 242T609 309Q609 343 598 374T565 428T513 464T446 478ZM600 93Q568 70 530 58T446 46Q360 46 292 95L224 27Q213 17 206 15T192 12Q174 12 163 23T151 52Q151 57 153 65T167 85L233 151Q210 182 197 221T184 309Q184 354 196 392T231 462L166 527Q155 538 153 546T150 560Q150 577 161 588T190 600Q196 600 204 598T222 585L288 519Q320 543 360 556T446 569Q539 569 603 520L668 586Q678 596 686 598T700 601Q717 601 728 590T740 561Q740 555 738 547T724 527L662 465Q685 433 697 395T710 309Q710 261 697 221T659 148L724 83Q735 72 737 64T740 50Q740 33 729 22T699 10Q693 10 686 12T668 25L600 93Z"  />
<glyph unicode="&#xA5;" horiz-adv-x="595" d="M296 40Q293 23 287 14T274 0T260 -6T247 -8Q235 -8 221 1T206 33Q206 35 206 41T209 59L227 163H87Q65 163 59 174T53 193Q53 203 60 215T91 228H237L253 320H114Q93 320 87 331T81 350Q81 360 88 372T119 385H244L114 639Q109 650 107 657T105 669Q105 688 118 701T151 715Q160 715 171 711T194 683L318 418L537 692Q549 708 559 712T579 716Q597 716 608 705T619 677Q619 671 616 662T603 641L387 385H497Q518 385 524 374T530 355Q530 345 523 333T492 320H345L328 228H469Q490 228 496 217T502 198Q502 188 495 176T464 163H318L296 40H296Z"  />
<glyph unicode="&#xA6;" horiz-adv-x="222" d="M70 638Q70 652 74 661T85 675T99 681T111 683Q116 683 123 682T136 675T147 661T152 638V362Q152 348 148 339T137 325T123 319T111 317Q106 317 99 318T86 325T75 339T70 362V638ZM70 138Q70 152 74 161T85 175T99 181T111 183Q116 183 123 182T136 175T147 161T152 138V-138Q152 -152 148 -161T137 -175T123 -181T111 -183Q106 -183 99 -182T86 -175T75 -161T70 -138V138Z"  />
<glyph unicode="&#xA7;" horiz-adv-x="595" d="M331 184Q364 192 387 216T411 277Q411 295 405 309T389 335T365 354T337 369L265 403Q247 400 231 393T201 373T180 344T172 308Q172 271 194 253T252 218L331 184ZM218 -141Q168 -141 121 -123T46 -74Q35 -63 32 -53T29 -35Q29 -18 41 -5T72 8Q81 8 90 5T112 -13Q133 -36 162 -47T218 -59Q241 -59 262 -54T299 -38T325 -10T335 31Q335 51 329 66T308 93T272 116T218 140Q152 166 117 200T81 293Q81 349 115 388T204 444Q183 458 169 483T155 541Q155 584 172 617T219 674T288 710T371 723Q419 723 456 710T518 674Q528 665 532 656T536 639Q536 620 524 608T492 595Q483 595 475 598T454 613Q439 627 418 636T367 645Q317 645 285 621T252 552Q252 534 258 521T277 496T310 474T358 452Q392 438 418 423T463 389T491 347T501 293Q501 231 469 196T389 142Q410 123 422 99T434 46Q434 0 417 -35T369 -93T300 -129T218 -141Z"  />
<glyph unicode="&#xA8;" horiz-adv-x="250" d="M143 647Q143 622 127 605T85 587Q60 587 43 602T26 644Q26 671 44 688T87 705Q111 705 127 690T143 647ZM341 647Q341 622 325 605T282 587Q258 587 241 602T224 644Q224 671 242 688T285 705Q309 705 325 690T341 647Z"  />
<glyph unicode="&#xA9;" horiz-adv-x="800" d="M20 353Q20 432 50 500T131 620T252 700T401 730Q479 730 548 701T668 620T750 501T780 353Q780 275 750 207T669 87T548 7T401 -22Q322 -22 253 7T132 87T50 206T20 353ZM80 353Q80 287 105 229T174 128T276 59T401 34Q467 34 525 59T626 127T695 229T720 353Q720 419 695 477T627 579T525 648T401 674Q335 674 277 649T175 580T106 478T80 353ZM550 184Q525 161 491 148T414 134Q366 134 325 149T252 194T204 265T186 359Q186 410 203 451T252 521T324 567T414 583Q452 583 487 571T545 539Q556 530 559 522T563 505Q563 488 552 478T524 467Q519 467 511 469T492 480Q458 508 415 508Q382 508 356 496T311 463T284 416T274 360Q274 331 283 304T311 256T356 223T418 210Q441 210 461 217T497 239Q507 247 514 250T529 253Q545 253 555 243T566 217Q566 209 563 201T550 184Z"  />
<glyph unicode="&#xAA;" horiz-adv-x="365" d="M323 452Q319 432 310 428T293 423Q286 423 278 428T269 447Q269 454 272 469H271Q255 448 232 436T177 424Q139 424 111 443T82 502Q82 535 98 556T142 589T207 605T288 610Q290 620 290 627Q290 650 277 659T237 669Q208 669 177 652Q164 644 155 644Q145 644 138 650T131 667Q131 683 148 694Q170 708 196 715T246 722Q296 722 324 700T353 636Q353 623 350 605L323 452ZM274 564Q253 564 231 562T190 555T159 539T146 511Q146 489 161 482T194 475Q229 475 251 495T279 546L283 564H274Z"  />
<glyph unicode="&#xAB;" horiz-adv-x="507" d="M50 214Q42 231 42 243Q42 249 44 256T57 276L191 433Q201 445 208 448T224 452Q238 452 248 443T258 418Q258 413 256 406T245 388L121 240L192 99Q197 90 198 85T199 74Q199 57 188 47T162 37Q154 37 146 40T130 58L50 214ZM251 214Q243 231 243 243Q243 249 245 256T258 276L392 433Q402 445 409 448T425 452Q439 452 449 443T459 418Q459 413 457 406T446 388L322 240L393 99Q398 90 399 85T400 74Q400 57 389 47T363 37Q355 37 347 40T331 58L251 214Z"  />
<glyph unicode="&#xAC;" horiz-adv-x="666" d="M596 176Q596 161 592 153T581 139T567 133T555 131Q550 131 543 132T530 139T520 152T515 176V345H107Q92 345 84 349T70 360T64 374T62 386Q62 391 63 398T70 411T83 421T107 426H548Q596 426 596 378V176Z"  />
<glyph unicode="&#xAD;" horiz-adv-x="320" d="M68 205Q54 205 46 209T33 218T27 230T25 241Q25 247 27 254T34 268T48 279T72 284H231Q258 284 265 271T273 248Q273 242 271 235T264 221T250 210T226 205H68Z"  />
<glyph unicode="&#xAE;" horiz-adv-x="600" d="M112 493Q112 540 130 581T179 653T252 702T341 720Q388 720 429 702T501 654T550 582T568 493Q568 446 550 405T502 334T430 287T341 269Q294 269 252 286T179 334T130 405T112 493ZM148 493Q148 454 163 419T204 358T266 317T341 302Q381 302 415 317T476 358T517 419T532 493Q532 533 517 568T476 629T416 671T341 686Q301 686 266 671T205 630T163 568T148 493ZM351 511Q368 511 378 520T388 544Q388 559 377 566T351 574H304V511H351ZM448 407Q456 396 456 387Q456 375 448 367T428 359Q422 359 415 362T401 376L340 467H304V394Q304 373 293 367T274 360Q266 360 255 366T243 394V590Q243 624 277 624H353Q371 624 388 620T419 607T441 583T450 544Q450 518 436 501T399 476L448 407Z"  />
<glyph unicode="&#xAF;" horiz-adv-x="250" d="M66 596Q43 596 37 608T30 628Q30 633 31 639T37 650T50 660T71 664H298Q321 664 327 653T334 633Q334 623 326 610T293 596H66Z"  />
<glyph unicode="&#xB0;" horiz-adv-x="400" d="M395 565Q395 532 383 504T350 456T301 423T240 411Q207 411 179 423T130 455T97 504T85 565Q85 598 97 626T130 675T179 708T240 720Q273 720 301 708T350 675T383 626T395 565ZM331 565Q331 584 324 601T305 630T276 650T240 657Q221 657 205 650T176 631T156 601T149 565Q149 527 175 501T240 474Q278 474 304 500T331 565Z"  />
<glyph unicode="&#xB1;" horiz-adv-x="666" d="M116 40Q102 40 93 44T79 55T73 69T71 81Q71 86 72 93T79 106T93 116T116 121H550Q578 121 586 106T595 81Q595 76 594 69T587 56T573 45T550 40H116ZM116 338Q102 338 93 342T79 353T73 367T71 379Q71 384 72 391T79 404T93 414T116 419H293V532Q293 560 308 568T333 577Q338 577 345 576T358 569T369 555T374 532V419H550Q578 419 586 404T595 379Q595 374 594 367T587 354T573 343T550 338H374V228Q374 214 370 205T359 191T345 185T333 183Q328 183 321 184T308 191T298 205T293 228V338H116Z"  />
<glyph unicode="&#xB2;" horiz-adv-x="385" d="M92 286Q68 286 59 297T50 323Q50 333 55 343T75 365L249 509Q282 537 296 558T311 602Q311 628 295 641T249 655Q209 655 187 618Q177 601 168 596T150 591Q136 591 127 599T118 621Q118 627 120 634T127 649Q149 682 181 699T253 717Q313 717 347 687T381 606Q381 582 375 563T357 527T327 494T284 457L154 353H310Q333 353 339 342T345 323Q345 312 338 299T306 286H92Z"  />
<glyph unicode="&#xB3;" horiz-adv-x="385" d="M194 478Q174 478 168 488T162 506Q162 514 168 526T197 538Q291 538 291 609Q291 633 276 645T237 658Q200 658 177 631Q163 616 147 616Q134 616 125 623T116 645Q116 660 130 674Q153 699 181 710T243 721Q299 721 331 690T363 611Q363 568 338 542T280 508Q310 499 328 475T346 421Q346 386 334 360T302 316T253 289T193 280Q154 280 125 293T78 330Q72 338 69 346T66 360Q66 376 75 386T100 396Q109 396 116 392T133 373Q154 345 194 345Q232 345 252 364T272 414Q272 432 265 444T247 463T222 474T194 478Z"  />
<glyph unicode="&#xB4;" horiz-adv-x="250" d="M233 702Q248 716 257 719T274 722Q290 722 299 712T309 687Q309 679 305 670T284 646L199 574Q187 563 178 560T162 556Q145 556 136 566T127 590Q127 596 130 605T148 627L233 702Z"  />
<glyph unicode="&#xB5;" horiz-adv-x="578" d="M498 42Q498 26 493 16T481 1T467 -6T454 -8Q448 -8 441 -6T426 1T414 16T409 42V78H407Q387 39 346 13T252 -13Q226 -13 205 -5T169 17V-196Q169 -213 164 -223T152 -238T136 -246T122 -248Q116 -248 108 -246T93 -239T80 -223T75 -196V430Q75 446 80 456T92 472T108 480T122 482Q128 482 136 480T151 473T164 457T169 430V211Q169 182 173 156T190 110T223 78T277 66Q333 66 368 108T404 222V430Q404 446 409 456T421 472T437 480T451 482Q457 482 465 480T480 473T493 457T498 430V42Z"  />
<glyph unicode="&#xB6;" horiz-adv-x="600" d="M453 -92Q450 -106 445 -114T434 -127T422 -133T410 -134Q401 -134 388 -126T375 -98Q375 -96 375 -92T377 -78L505 645H389L259 -92Q256 -106 251 -114T240 -127T228 -133T217 -134Q207 -134 195 -126T182 -98Q182 -96 182 -92T184 -78L255 327Q213 327 179 338T122 370T86 418T73 479Q73 519 88 560T135 634T218 687T341 708H542Q568 708 577 696T586 671Q586 669 586 664T584 652L453 -92H453Z"  />
<glyph unicode="&#xB7;" horiz-adv-x="260" d="M193 306Q193 280 174 260T128 240Q102 240 84 256T65 302Q65 331 85 350T131 369Q157 369 175 352T193 306Z"  />
<glyph unicode="&#xB8;" horiz-adv-x="250" d="M30 -235Q11 -235 -10 -232T-48 -222Q-61 -217 -65 -211T-69 -197Q-69 -186 -62 -178T-43 -170Q-37 -170 -31 -172T-17 -176Q-8 -179 2 -181T27 -183Q52 -183 72 -173T92 -142Q92 -127 82 -118T51 -109Q40 -109 28 -112Q16 -115 9 -115Q-1 -115 -6 -109T-12 -95Q-12 -90 -10 -85T-1 -72L60 0H115L57 -69Q70 -66 83 -66Q113 -66 137 -82T162 -138Q162 -165 150 -183T118 -213T75 -230T30 -235Z"  />
<glyph unicode="&#xB9;" horiz-adv-x="385" d="M248 316Q245 302 240 294T229 281T217 275T205 274Q195 274 183 282T171 310Q171 312 171 316T174 334L224 615L171 575Q162 569 156 567T145 565Q132 565 124 573T116 594Q116 601 119 608T135 625L238 699Q253 710 261 713T278 716Q289 716 300 708T312 681Q312 677 310 667L248 316H248Z"  />
<glyph unicode="&#xBA;" horiz-adv-x="365" d="M390 599Q390 560 377 528T340 473T286 438T219 425Q158 425 122 460T85 548Q85 585 98 617T134 672T188 708T255 721Q314 721 352 688T390 599ZM321 592Q321 623 302 643T250 664Q229 664 211 655T181 631T161 597T154 555Q154 524 172 504T224 483Q245 483 263 492T294 516T314 550T321 592Z"  />
<glyph unicode="&#xBB;" horiz-adv-x="507" d="M436 273Q444 256 444 244Q444 238 442 231T429 211L295 54Q285 42 278 39T262 35Q248 35 238 44T228 69Q228 74 230 81T241 99L365 247L294 388Q289 397 288 402T287 413Q287 430 298 440T324 450Q332 450 340 447T356 429L436 273ZM235 273Q243 256 243 244Q243 238 241 231T228 211L94 54Q84 42 77 39T61 35Q47 35 37 44T27 69Q27 74 29 81T40 99L164 247L93 388Q88 397 87 402T86 413Q86 430 97 440T123 450Q131 450 139 447T155 429L235 273Z"  />
<glyph unicode="&#xBC;" horiz-adv-x="871" d="M699 30Q694 4 682 -2T661 -8Q652 -8 641 -1T629 25Q629 26 629 30T631 44L640 93H489Q463 93 456 106T448 129Q448 138 451 147T465 167L666 402Q683 422 694 428T717 434Q722 434 729 432T742 426T753 413T758 391Q758 389 758 384T755 367L719 158H749Q770 158 776 147T783 128Q783 118 776 106T745 93H710L699 30ZM679 324H676L533 158H649L679 324ZM194 -7Q185 -20 178 -23T164 -26Q151 -26 142 -19T133 3Q133 7 134 13T143 28L667 715Q677 727 684 730T698 733Q711 733 719 726T728 704Q728 700 727 694T719 679L194 -7ZM248 316Q245 302 240 294T229 281T217 275T205 274Q195 274 183 282T171 310Q171 312 171 316T174 334L224 615L171 575Q162 569 156 567T145 565Q132 565 124 573T116 594Q116 601 119 608T135 625L238 699Q253 710 261 713T278 716Q289 716 300 708T312 681Q312 677 310 667L248 316Z"  />
<glyph unicode="&#xBD;" horiz-adv-x="871" d="M194 -7Q185 -20 178 -23T164 -26Q151 -26 142 -19T133 3Q133 7 134 13T143 28L667 715Q677 727 684 730T698 733Q711 733 719 726T728 704Q728 700 727 694T719 679L194 -7ZM248 316Q245 302 240 294T229 281T217 275T205 274Q195 274 183 282T171 310Q171 312 171 316T174 334L224 615L171 575Q162 569 156 567T145 565Q132 565 124 573T116 594Q116 601 119 608T135 625L238 699Q253 710 261 713T278 716Q289 716 300 708T312 681Q312 677 310 667L248 316ZM519 0Q495 0 486 11T477 37Q477 47 482 57T502 79L676 223Q709 251 723 272T738 316Q738 342 722 355T676 369Q636 369 614 332Q604 315 595 310T577 305Q563 305 554 313T545 335Q545 341 547 348T554 363Q576 396 608 413T680 431Q740 431 774 401T808 320Q808 296 802 277T784 241T754 208T711 171L581 67H737Q760 67 766 56T772 37Q772 26 765 13T733 0H519Z"  />
<glyph unicode="&#xBE;" horiz-adv-x="871" d="M699 30Q694 4 682 -2T661 -8Q652 -8 641 -1T629 25Q629 26 629 30T631 44L640 93H489Q463 93 456 106T448 129Q448 138 451 147T465 167L666 402Q683 422 694 428T717 434Q722 434 729 432T742 426T753 413T758 391Q758 389 758 384T755 367L719 158H749Q770 158 776 147T783 128Q783 118 776 106T745 93H710L699 30ZM679 324H676L533 158H649L679 324ZM194 -7Q185 -20 178 -23T164 -26Q151 -26 142 -19T133 3Q133 7 134 13T143 28L667 715Q677 727 684 730T698 733Q711 733 719 726T728 704Q728 700 727 694T719 679L194 -7ZM194 478Q174 478 168 488T162 506Q162 514 168 526T197 538Q291 538 291 609Q291 633 276 645T237 658Q200 658 177 631Q163 616 147 616Q134 616 125 623T116 645Q116 660 130 674Q153 699 181 710T243 721Q299 721 331 690T363 611Q363 568 338 542T280 508Q310 499 328 475T346 421Q346 386 334 360T302 316T253 289T193 280Q154 280 125 293T78 330Q72 338 69 346T66 360Q66 376 75 386T100 396Q109 396 116 392T133 373Q154 345 194 345Q232 345 252 364T272 414Q272 432 265 444T247 463T222 474T194 478Z"  />
<glyph unicode="&#xBF;" horiz-adv-x="500" d="M-25 -66Q-25 -4 8 38T100 122Q125 139 141 153T169 181T187 211T197 248Q203 279 219 287T247 296Q258 296 273 287T288 253Q288 236 281 211Q270 169 246 141T190 88L148 55Q119 33 96 7T73 -61Q73 -103 98 -126T169 -150Q214 -150 243 -129T289 -73Q300 -52 312 -45T336 -38Q354 -38 365 -49T377 -79Q377 -85 375 -94T367 -115Q336 -174 282 -204T162 -235Q124 -235 90 -226T31 -196T-10 -144T-25 -66ZM198 427Q198 453 217 473T262 493Q288 493 306 477T325 431Q325 402 306 384T260 365Q234 365 216 381T198 427Z"  />
<glyph unicode="&#xC0;" horiz-adv-x="681" d="M615 70Q617 59 618 54T619 43Q619 20 604 6T569 -8Q563 -8 556 -7T541 -1T528 12T519 35L492 175H147L53 26Q40 6 28 -1T4 -8Q-16 -8 -29 4T-42 36Q-42 43 -40 51T-31 71L361 668Q382 700 398 708T430 716Q437 716 446 714T463 706T479 690T490 662L615 70ZM202 261H475L412 593L202 261ZM448 827Q461 814 464 806T467 792Q467 778 458 767T433 756Q425 756 417 759T397 773L320 847Q307 859 304 868T300 884Q300 900 310 910T338 922Q345 922 353 920T374 905L448 827Z"  />
<glyph unicode="&#xC1;" horiz-adv-x="681" d="M615 70Q617 59 618 54T619 43Q619 20 604 6T569 -8Q563 -8 556 -7T541 -1T528 12T519 35L492 175H147L53 26Q40 6 28 -1T4 -8Q-16 -8 -29 4T-42 36Q-42 43 -40 51T-31 71L361 668Q382 700 398 708T430 716Q437 716 446 714T463 706T479 690T490 662L615 70ZM202 261H475L412 593L202 261ZM522 902Q537 916 546 919T563 922Q579 922 588 912T598 887Q598 879 594 870T573 846L488 774Q476 763 467 760T451 756Q434 756 425 766T416 790Q416 796 419 805T437 827L522 902Z"  />
<glyph unicode="&#xC2;" horiz-adv-x="681" d="M615 70Q617 59 618 54T619 43Q619 20 604 6T569 -8Q563 -8 556 -7T541 -1T528 12T519 35L492 175H147L53 26Q40 6 28 -1T4 -8Q-16 -8 -29 4T-42 36Q-42 43 -40 51T-31 71L361 668Q382 700 398 708T430 716Q437 716 446 714T463 706T479 690T490 662L615 70ZM202 261H475L412 593L202 261ZM363 771Q347 756 332 756Q319 756 311 764T302 786Q302 793 305 800T320 817L412 896Q430 911 441 916T466 922Q477 922 488 918T512 896L577 815Q585 805 587 799T589 787Q588 773 579 765T558 756Q543 756 530 771L461 854L363 771Z"  />
<glyph unicode="&#xC3;" horiz-adv-x="681" d="M615 70Q617 59 618 54T619 43Q619 20 604 6T569 -8Q563 -8 556 -7T541 -1T528 12T519 35L492 175H147L53 26Q40 6 28 -1T4 -8Q-16 -8 -29 4T-42 36Q-42 43 -40 51T-31 71L361 668Q382 700 398 708T430 716Q437 716 446 714T463 706T479 690T490 662L615 70ZM202 261H475L412 593L202 261ZM523 843Q537 843 546 852T564 875Q572 888 580 893T596 898Q609 898 616 890T624 871Q624 866 623 860T617 845Q600 813 574 795T514 777Q495 777 479 783T444 799Q423 811 410 816T385 821Q371 821 362 812T344 789Q336 776 328 771T312 766Q299 766 292 774T284 793Q284 798 285 804T291 820Q325 887 395 887Q414 887 430 881T465 865Q485 853 498 848T523 843Z"  />
<glyph unicode="&#xC4;" horiz-adv-x="681" d="M615 70Q617 59 618 54T619 43Q619 20 604 6T569 -8Q563 -8 556 -7T541 -1T528 12T519 35L492 175H147L53 26Q40 6 28 -1T4 -8Q-16 -8 -29 4T-42 36Q-42 43 -40 51T-31 71L361 668Q382 700 398 708T430 716Q437 716 446 714T463 706T479 690T490 662L615 70ZM202 261H475L412 593L202 261ZM413 847Q413 822 397 805T355 787Q330 787 313 802T296 844Q296 871 314 888T357 905Q381 905 397 890T413 847ZM611 847Q611 822 595 805T552 787Q528 787 511 802T494 844Q494 871 512 888T555 905Q579 905 595 890T611 847Z"  />
<glyph unicode="&#xC5;" horiz-adv-x="681" d="M615 70Q617 59 618 54T619 43Q619 20 604 6T569 -8Q563 -8 556 -7T541 -1T528 12T519 35L492 175H147L53 26Q40 6 28 -1T4 -8Q-16 -8 -29 4T-42 36Q-42 43 -40 51T-31 71L361 668Q382 700 398 708T430 716Q437 716 446 714T463 706T479 690T490 662L615 70ZM202 261H475L412 593L202 261ZM555 869Q555 820 524 787T444 753Q406 753 382 777T357 836Q357 860 365 880T388 917T423 942T468 951Q507 951 531 928T555 869ZM514 863Q514 884 501 899T465 914Q436 914 418 893T399 841Q399 820 411 806T447 791Q476 791 495 812T514 863Z"  />
<glyph unicode="&#xC6;" horiz-adv-x="1006" d="M286 275H518L580 622H570L286 275ZM504 193H219L78 20Q64 3 53 -2T32 -8Q14 -8 2 3T-11 34Q-11 40 -9 49T3 70L507 677Q519 692 532 700T567 708H972Q1001 708 1009 694T1017 669Q1017 662 1015 654T1008 639T993 627T967 622H675L638 408H904Q919 408 927 404T941 395T947 383T949 370Q949 357 940 341T899 325H623L581 87H889Q904 87 913 83T927 72T933 59T935 47Q935 41 933 33T925 17T909 5T883 0H535Q501 0 491 15T480 48Q480 50 480 54T482 67L504 193Z"  />
<glyph unicode="&#xC7;" horiz-adv-x="700" d="M318 -235Q299 -235 278 -232T240 -222Q227 -217 223 -211T219 -197Q219 -186 226 -178T245 -170Q251 -170 257 -172T271 -176Q280 -179 290 -181T315 -183Q340 -183 360 -173T380 -142Q380 -127 370 -118T339 -109Q328 -109 316 -112Q304 -115 297 -115Q287 -115 282 -109T276 -95Q276 -90 278 -85T287 -72L334 -16Q271 -11 219 13T130 76T73 169T53 286Q53 378 85 458T175 597T308 691T473 726Q532 726 584 708T672 657Q685 644 689 634T693 615Q693 595 680 582T648 569Q637 569 628 573T605 590Q581 613 548 627T470 642Q401 642 343 613T243 535T178 425T155 298Q155 250 169 208T212 135T283 85T379 67Q474 67 557 139Q571 150 579 153T595 156Q614 156 625 145T637 115Q637 106 633 95T615 72Q573 34 518 10T388 -17L345 -69Q358 -66 371 -66Q401 -66 425 -82T450 -138Q450 -165 438 -183T406 -213T363 -230T318 -235Z"  />
<glyph unicode="&#xC8;" horiz-adv-x="582" d="M548 708Q577 708 585 694T593 669Q593 662 591 654T584 639T569 627T543 622H238L201 408H480Q495 408 503 404T517 395T523 383T525 370Q525 357 516 341T475 325H186L144 87H465Q480 87 489 83T503 72T509 59T511 47Q511 41 509 33T501 17T485 5T459 0H97Q63 0 53 15T42 48Q42 50 42 54T44 67L147 649Q152 679 166 693T212 708H548ZM426 827Q439 814 442 806T445 792Q445 778 436 767T411 756Q403 756 395 759T375 773L298 847Q285 859 282 868T278 884Q278 900 288 910T316 922Q323 922 331 920T352 905L426 827Z"  />
<glyph unicode="&#xC9;" horiz-adv-x="582" d="M548 708Q577 708 585 694T593 669Q593 662 591 654T584 639T569 627T543 622H238L201 408H480Q495 408 503 404T517 395T523 383T525 370Q525 357 516 341T475 325H186L144 87H465Q480 87 489 83T503 72T509 59T511 47Q511 41 509 33T501 17T485 5T459 0H97Q63 0 53 15T42 48Q42 50 42 54T44 67L147 649Q152 679 166 693T212 708H548ZM450 902Q465 916 474 919T491 922Q507 922 516 912T526 887Q526 879 522 870T501 846L416 774Q404 763 395 760T379 756Q362 756 353 766T344 790Q344 796 347 805T365 827L450 902Z"  />
<glyph unicode="&#xCA;" horiz-adv-x="582" d="M548 708Q577 708 585 694T593 669Q593 662 591 654T584 639T569 627T543 622H238L201 408H480Q495 408 503 404T517 395T523 383T525 370Q525 357 516 341T475 325H186L144 87H465Q480 87 489 83T503 72T509 59T511 47Q511 41 509 33T501 17T485 5T459 0H97Q63 0 53 15T42 48Q42 50 42 54T44 67L147 649Q152 679 166 693T212 708H548ZM311 771Q295 756 280 756Q267 756 259 764T250 786Q250 793 253 800T268 817L360 896Q378 911 389 916T414 922Q425 922 436 918T460 896L525 815Q533 805 535 799T537 787Q536 773 527 765T506 756Q491 756 478 771L409 854L311 771Z"  />
<glyph unicode="&#xCB;" horiz-adv-x="582" d="M548 708Q577 708 585 694T593 669Q593 662 591 654T584 639T569 627T543 622H238L201 408H480Q495 408 503 404T517 395T523 383T525 370Q525 357 516 341T475 325H186L144 87H465Q480 87 489 83T503 72T509 59T511 47Q511 41 509 33T501 17T485 5T459 0H97Q63 0 53 15T42 48Q42 50 42 54T44 67L147 649Q152 679 166 693T212 708H548ZM358 847Q358 822 342 805T300 787Q275 787 258 802T241 844Q241 871 259 888T302 905Q326 905 342 890T358 847ZM556 847Q556 822 540 805T497 787Q473 787 456 802T439 844Q439 871 457 888T500 905Q524 905 540 890T556 847Z"  />
<glyph unicode="&#xCC;" horiz-adv-x="276" d="M138 45Q135 27 129 17T115 1T99 -6T84 -8Q78 -8 71 -6T57 2T45 16T40 38Q40 40 40 45T43 63L149 663Q152 681 158 691T172 707T188 714T203 716Q209 716 216 714T230 706T242 692T247 670Q247 668 247 663T244 645L138 45ZM229 827Q242 814 245 806T248 792Q248 778 239 767T214 756Q206 756 198 759T178 773L101 847Q88 859 85 868T81 884Q81 900 91 910T119 922Q126 922 134 920T155 905L229 827Z"  />
<glyph unicode="&#xCD;" horiz-adv-x="276" d="M138 45Q135 27 129 17T115 1T99 -6T84 -8Q78 -8 71 -6T57 2T45 16T40 38Q40 40 40 45T43 63L149 663Q152 681 158 691T172 707T188 714T203 716Q209 716 216 714T230 706T242 692T247 670Q247 668 247 663T244 645L138 45ZM289 902Q304 916 313 919T330 922Q346 922 355 912T365 887Q365 879 361 870T340 846L255 774Q243 763 234 760T218 756Q201 756 192 766T183 790Q183 796 186 805T204 827L289 902Z"  />
<glyph unicode="&#xCE;" horiz-adv-x="276" d="M138 45Q135 27 129 17T115 1T99 -6T84 -8Q78 -8 71 -6T57 2T45 16T40 38Q40 40 40 45T43 63L149 663Q152 681 158 691T172 707T188 714T203 716Q209 716 216 714T230 706T242 692T247 670Q247 668 247 663T244 645L138 45ZM136 771Q120 756 105 756Q92 756 84 764T75 786Q75 793 78 800T93 817L185 896Q203 911 214 916T239 922Q250 922 261 918T285 896L350 815Q358 805 360 799T362 787Q361 773 352 765T331 756Q316 756 303 771L234 854L136 771Z"  />
<glyph unicode="&#xCF;" horiz-adv-x="276" d="M138 45Q135 27 129 17T115 1T99 -6T84 -8Q78 -8 71 -6T57 2T45 16T40 38Q40 40 40 45T43 63L149 663Q152 681 158 691T172 707T188 714T203 716Q209 716 216 714T230 706T242 692T247 670Q247 668 247 663T244 645L138 45ZM185 847Q185 822 169 805T127 787Q102 787 85 802T68 844Q68 871 86 888T129 905Q153 905 169 890T185 847ZM383 847Q383 822 367 805T324 787Q300 787 283 802T266 844Q266 871 284 888T327 905Q351 905 367 890T383 847Z"  />
<glyph unicode="&#xD0;" horiz-adv-x="757" d="M201 405H396Q419 405 426 394T433 373Q433 362 425 349T392 336H189L145 86H290Q370 86 430 112T532 183T593 283T614 400Q614 446 599 486T554 557T476 606T363 624H240L201 405ZM92 336H61Q38 336 31 347T24 367Q24 378 32 391T66 405H105L148 649Q153 679 167 693T213 708H387Q447 708 506 692T612 640T688 548T717 412Q717 319 685 243T594 113T457 30T285 0H98Q64 0 54 15T43 48Q43 50 43 54T45 67L92 336Z"  />
<glyph unicode="&#xD1;" horiz-adv-x="758" d="M146 642Q150 666 158 680T177 703T197 713T216 716Q233 716 251 707T286 663L543 154H545L636 664Q639 682 645 692T659 707T675 714T689 716Q701 716 716 707T732 672Q732 670 732 663T730 647L628 66Q624 42 616 28T597 5T577 -5T559 -8Q542 -8 524 0T488 44L231 561H229L137 44Q134 26 128 16T114 1T98 -6T84 -8Q72 -8 57 1T41 36Q41 38 41 44T43 61L146 642ZM538 843Q552 843 561 852T579 875Q587 888 595 893T611 898Q624 898 631 890T639 871Q639 866 638 860T632 845Q615 813 589 795T529 777Q510 777 494 783T459 799Q438 811 425 816T400 821Q386 821 377 812T359 789Q351 776 343 771T327 766Q314 766 307 774T299 793Q299 798 300 804T306 820Q340 887 410 887Q429 887 445 881T480 865Q500 853 513 848T538 843Z"  />
<glyph unicode="&#xD2;" horiz-adv-x="831" d="M790 421Q790 330 760 250T674 111T544 17T381 -18Q307 -18 247 3T143 65T77 161T53 288Q53 379 84 458T171 597T302 691T465 726Q537 726 597 705T700 643T766 547T790 421ZM688 412Q688 460 673 501T629 574T558 624T460 642Q391 642 335 613T238 535T177 424T155 297Q155 250 170 208T213 135T284 85T383 67Q453 67 509 96T605 173T666 284T688 412ZM529 827Q542 814 545 806T548 792Q548 778 539 767T514 756Q506 756 498 759T478 773L401 847Q388 859 385 868T381 884Q381 900 391 910T419 922Q426 922 434 920T455 905L529 827Z"  />
<glyph unicode="&#xD3;" horiz-adv-x="831" d="M790 421Q790 330 760 250T674 111T544 17T381 -18Q307 -18 247 3T143 65T77 161T53 288Q53 379 84 458T171 597T302 691T465 726Q537 726 597 705T700 643T766 547T790 421ZM688 412Q688 460 673 501T629 574T558 624T460 642Q391 642 335 613T238 535T177 424T155 297Q155 250 170 208T213 135T284 85T383 67Q453 67 509 96T605 173T666 284T688 412ZM534 902Q549 916 558 919T575 922Q591 922 600 912T610 887Q610 879 606 870T585 846L500 774Q488 763 479 760T463 756Q446 756 437 766T428 790Q428 796 431 805T449 827L534 902Z"  />
<glyph unicode="&#xD4;" horiz-adv-x="831" d="M790 421Q790 330 760 250T674 111T544 17T381 -18Q307 -18 247 3T143 65T77 161T53 288Q53 379 84 458T171 597T302 691T465 726Q537 726 597 705T700 643T766 547T790 421ZM688 412Q688 460 673 501T629 574T558 624T460 642Q391 642 335 613T238 535T177 424T155 297Q155 250 170 208T213 135T284 85T383 67Q453 67 509 96T605 173T666 284T688 412ZM420 771Q404 756 389 756Q376 756 368 764T359 786Q359 793 362 800T377 817L469 896Q487 911 498 916T523 922Q534 922 545 918T569 896L634 815Q642 805 644 799T646 787Q645 773 636 765T615 756Q600 756 587 771L518 854L420 771Z"  />
<glyph unicode="&#xD5;" horiz-adv-x="831" d="M790 421Q790 330 760 250T674 111T544 17T381 -18Q307 -18 247 3T143 65T77 161T53 288Q53 379 84 458T171 597T302 691T465 726Q537 726 597 705T700 643T766 547T790 421ZM688 412Q688 460 673 501T629 574T558 624T460 642Q391 642 335 613T238 535T177 424T155 297Q155 250 170 208T213 135T284 85T383 67Q453 67 509 96T605 173T666 284T688 412ZM570 843Q584 843 593 852T611 875Q619 888 627 893T643 898Q656 898 663 890T671 871Q671 866 670 860T664 845Q647 813 621 795T561 777Q542 777 526 783T491 799Q470 811 457 816T432 821Q418 821 409 812T391 789Q383 776 375 771T359 766Q346 766 339 774T331 793Q331 798 332 804T338 820Q372 887 442 887Q461 887 477 881T512 865Q532 853 545 848T570 843Z"  />
<glyph unicode="&#xD6;" horiz-adv-x="831" d="M790 421Q790 330 760 250T674 111T544 17T381 -18Q307 -18 247 3T143 65T77 161T53 288Q53 379 84 458T171 597T302 691T465 726Q537 726 597 705T700 643T766 547T790 421ZM688 412Q688 460 673 501T629 574T558 624T460 642Q391 642 335 613T238 535T177 424T155 297Q155 250 170 208T213 135T284 85T383 67Q453 67 509 96T605 173T666 284T688 412ZM462 847Q462 822 446 805T404 787Q379 787 362 802T345 844Q345 871 363 888T406 905Q430 905 446 890T462 847ZM660 847Q660 822 644 805T601 787Q577 787 560 802T543 844Q543 871 561 888T604 905Q628 905 644 890T660 847Z"  />
<glyph unicode="&#xD7;" horiz-adv-x="666" d="M390 304L534 159Q543 150 546 142T549 125Q549 108 538 96T509 84Q502 84 494 87T476 100L332 243L189 100Q180 90 172 87T156 84Q139 84 128 95T116 124Q116 132 119 140T132 158L276 301L133 446Q122 457 119 465T116 481Q116 497 127 508T155 520Q163 520 171 517T189 504L333 360L477 504Q486 514 494 517T509 520Q526 520 537 510T549 482Q549 474 546 466T532 447L390 304Z"  />
<glyph unicode="&#xD8;" horiz-adv-x="831" d="M790 421Q790 330 760 250T674 111T544 17T381 -18Q306 -18 246 3T142 66L69 -3Q61 -11 54 -13T42 -16Q31 -16 24 -9T17 9Q17 15 20 21T32 37L106 107Q80 144 67 189T53 288Q53 379 84 458T171 597T302 691T465 726Q599 726 685 655L749 716Q759 725 765 727T776 729Q787 729 794 722T801 704Q801 698 798 691T785 676L724 618Q756 580 773 531T790 421ZM688 412Q688 490 650 548L214 134Q243 103 285 85T383 67Q453 67 509 96T605 173T666 284T688 412ZM155 297Q155 231 182 179L614 588Q585 614 547 628T460 642Q391 642 335 613T238 535T177 424T155 297Z"  />
<glyph unicode="&#xD9;" horiz-adv-x="712" d="M623 262Q614 208 593 158T534 68T444 6T317 -18Q254 -18 208 -1T130 46T84 115T68 200Q68 230 74 262L144 663Q147 681 153 691T167 707T183 714T198 716Q204 716 211 714T225 706T237 692T242 670Q242 668 242 663T239 645L172 268Q170 254 169 241T167 215Q167 185 175 159T201 112T249 79T320 67Q372 67 408 84T468 129T505 194T526 268L595 663Q598 681 604 691T618 707T634 714T649 716Q655 716 662 714T676 706T688 692T693 670Q693 668 693 663T690 645L623 262ZM460 827Q473 814 476 806T479 792Q479 778 470 767T445 756Q437 756 429 759T409 773L332 847Q319 859 316 868T312 884Q312 900 322 910T350 922Q357 922 365 920T386 905L460 827Z"  />
<glyph unicode="&#xDA;" horiz-adv-x="712" d="M623 262Q614 208 593 158T534 68T444 6T317 -18Q254 -18 208 -1T130 46T84 115T68 200Q68 230 74 262L144 663Q147 681 153 691T167 707T183 714T198 716Q204 716 211 714T225 706T237 692T242 670Q242 668 242 663T239 645L172 268Q170 254 169 241T167 215Q167 185 175 159T201 112T249 79T320 67Q372 67 408 84T468 129T505 194T526 268L595 663Q598 681 604 691T618 707T634 714T649 716Q655 716 662 714T676 706T688 692T693 670Q693 668 693 663T690 645L623 262ZM489 902Q504 916 513 919T530 922Q546 922 555 912T565 887Q565 879 561 870T540 846L455 774Q443 763 434 760T418 756Q401 756 392 766T383 790Q383 796 386 805T404 827L489 902Z"  />
<glyph unicode="&#xDB;" horiz-adv-x="712" d="M623 262Q614 208 593 158T534 68T444 6T317 -18Q254 -18 208 -1T130 46T84 115T68 200Q68 230 74 262L144 663Q147 681 153 691T167 707T183 714T198 716Q204 716 211 714T225 706T237 692T242 670Q242 668 242 663T239 645L172 268Q170 254 169 241T167 215Q167 185 175 159T201 112T249 79T320 67Q372 67 408 84T468 129T505 194T526 268L595 663Q598 681 604 691T618 707T634 714T649 716Q655 716 662 714T676 706T688 692T693 670Q693 668 693 663T690 645L623 262ZM356 771Q340 756 325 756Q312 756 304 764T295 786Q295 793 298 800T313 817L405 896Q423 911 434 916T459 922Q470 922 481 918T505 896L570 815Q578 805 580 799T582 787Q581 773 572 765T551 756Q536 756 523 771L454 854L356 771Z"  />
<glyph unicode="&#xDC;" horiz-adv-x="712" d="M623 262Q614 208 593 158T534 68T444 6T317 -18Q254 -18 208 -1T130 46T84 115T68 200Q68 230 74 262L144 663Q147 681 153 691T167 707T183 714T198 716Q204 716 211 714T225 706T237 692T242 670Q242 668 242 663T239 645L172 268Q170 254 169 241T167 215Q167 185 175 159T201 112T249 79T320 67Q372 67 408 84T468 129T505 194T526 268L595 663Q598 681 604 691T618 707T634 714T649 716Q655 716 662 714T676 706T688 692T693 670Q693 668 693 663T690 645L623 262ZM403 847Q403 822 387 805T345 787Q320 787 303 802T286 844Q286 871 304 888T347 905Q371 905 387 890T403 847ZM601 847Q601 822 585 805T542 787Q518 787 501 802T484 844Q484 871 502 888T545 905Q569 905 585 890T601 847Z"  />
<glyph unicode="&#xDD;" horiz-adv-x="560" d="M272 45Q265 9 249 1T219 -8Q213 -8 206 -6T192 2T180 16T175 38Q175 40 175 45T178 63L221 306L64 629Q57 642 55 650T52 666Q52 687 67 701T103 716Q114 716 126 710T148 683L284 386L544 686Q560 705 571 710T593 716Q612 716 624 704T637 673Q637 665 634 655T620 634L319 306L272 45ZM420 902Q435 916 444 919T461 922Q477 922 486 912T496 887Q496 879 492 870T471 846L386 774Q374 763 365 760T349 756Q332 756 323 766T314 790Q314 796 317 805T335 827L420 902Z"  />
<glyph unicode="&#xDE;" horiz-adv-x="595" d="M173 247H285Q370 247 417 278T465 373Q465 432 426 455T321 479H215L173 247ZM229 562H334Q444 562 503 515T563 384Q563 329 543 288T485 220T395 179T280 165H159L138 45Q135 27 129 17T115 1T99 -6T85 -8Q79 -8 72 -6T58 2T46 16T41 38Q41 40 41 45T44 63L150 663Q153 681 159 691T173 707T189 714T203 716Q209 716 216 714T230 706T242 692T247 670Q247 668 247 663T244 645L229 562Z"  />
<glyph unicode="&#xDF;" horiz-adv-x="610" d="M273 -12Q263 -12 256 -12T241 -10Q214 -7 204 3T194 28Q194 45 205 56T237 68Q245 68 254 68T270 67Q307 67 340 77T400 110T441 166T457 247Q457 300 425 334T335 380Q309 385 303 396T296 419Q296 433 304 445T340 463Q392 471 428 500T464 588Q464 632 437 659T361 686Q321 686 295 671T251 631T224 578T210 522L124 42Q121 25 115 15T102 0T87 -6T73 -8Q68 -8 61 -6T48 1T37 14T32 35Q32 37 32 42T35 59L118 526Q126 571 142 614T188 692T260 747T365 768Q407 768 442 756T503 722T543 668T558 598Q558 530 518 487T418 428V426Q449 419 474 403T516 363T543 311T553 249Q553 190 533 142T475 60T386 7T273 -12Z"  />
<glyph unicode="&#xE0;" d="M345 228Q306 228 264 225T188 211T131 180T109 128Q109 108 116 96T136 75T164 64T196 61Q227 61 254 71T301 100T334 142T353 193L360 228H345ZM330 30Q330 38 331 45T334 66H332Q298 26 258 8T164 -10Q140 -10 114 -4T67 16T31 55T17 115Q17 173 49 208T131 263T245 289T370 296Q372 310 373 318T374 333Q374 375 348 393T274 412Q248 412 219 404T165 380Q154 374 148 372T135 370Q121 370 112 379T102 404Q102 414 107 423T126 442Q158 463 201 475T287 487Q321 487 352 480T408 456T448 412T463 347Q463 338 462 324T459 299L412 37Q409 22 404 13T393 0T379 -6T367 -8Q356 -8 343 -1T330 30ZM328 627Q341 614 344 606T347 592Q347 578 338 567T313 556Q305 556 297 559T277 573L200 647Q187 659 184 668T180 684Q180 700 190 710T218 722Q225 722 233 720T254 705L328 627Z"  />
<glyph unicode="&#xE1;" d="M345 228Q306 228 264 225T188 211T131 180T109 128Q109 108 116 96T136 75T164 64T196 61Q227 61 254 71T301 100T334 142T353 193L360 228H345ZM330 30Q330 38 331 45T334 66H332Q298 26 258 8T164 -10Q140 -10 114 -4T67 16T31 55T17 115Q17 173 49 208T131 263T245 289T370 296Q372 310 373 318T374 333Q374 375 348 393T274 412Q248 412 219 404T165 380Q154 374 148 372T135 370Q121 370 112 379T102 404Q102 414 107 423T126 442Q158 463 201 475T287 487Q321 487 352 480T408 456T448 412T463 347Q463 338 462 324T459 299L412 37Q409 22 404 13T393 0T379 -6T367 -8Q356 -8 343 -1T330 30ZM367 702Q382 716 391 719T408 722Q424 722 433 712T443 687Q443 679 439 670T418 646L333 574Q321 563 312 560T296 556Q279 556 270 566T261 590Q261 596 264 605T282 627L367 702Z"  />
<glyph unicode="&#xE2;" d="M345 228Q306 228 264 225T188 211T131 180T109 128Q109 108 116 96T136 75T164 64T196 61Q227 61 254 71T301 100T334 142T353 193L360 228H345ZM330 30Q330 38 331 45T334 66H332Q298 26 258 8T164 -10Q140 -10 114 -4T67 16T31 55T17 115Q17 173 49 208T131 263T245 289T370 296Q372 310 373 318T374 333Q374 375 348 393T274 412Q248 412 219 404T165 380Q154 374 148 372T135 370Q121 370 112 379T102 404Q102 414 107 423T126 442Q158 463 201 475T287 487Q321 487 352 480T408 456T448 412T463 347Q463 338 462 324T459 299L412 37Q409 22 404 13T393 0T379 -6T367 -8Q356 -8 343 -1T330 30ZM232 571Q216 556 201 556Q188 556 180 564T171 586Q171 593 174 600T189 617L281 696Q299 711 310 716T335 722Q346 722 357 718T381 696L446 615Q454 605 456 599T458 587Q457 573 448 565T427 556Q412 556 399 571L330 654L232 571Z"  />
<glyph unicode="&#xE3;" d="M345 228Q306 228 264 225T188 211T131 180T109 128Q109 108 116 96T136 75T164 64T196 61Q227 61 254 71T301 100T334 142T353 193L360 228H345ZM330 30Q330 38 331 45T334 66H332Q298 26 258 8T164 -10Q140 -10 114 -4T67 16T31 55T17 115Q17 173 49 208T131 263T245 289T370 296Q372 310 373 318T374 333Q374 375 348 393T274 412Q248 412 219 404T165 380Q154 374 148 372T135 370Q121 370 112 379T102 404Q102 414 107 423T126 442Q158 463 201 475T287 487Q321 487 352 480T408 456T448 412T463 347Q463 338 462 324T459 299L412 37Q409 22 404 13T393 0T379 -6T367 -8Q356 -8 343 -1T330 30ZM386 643Q400 643 409 652T427 675Q435 688 443 693T459 698Q472 698 479 690T487 671Q487 666 486 660T480 645Q463 613 437 595T377 577Q358 577 342 583T307 599Q286 611 273 616T248 621Q234 621 225 612T207 589Q199 576 191 571T175 566Q162 566 155 574T147 593Q147 598 148 604T154 620Q188 687 258 687Q277 687 293 681T328 665Q348 653 361 648T386 643Z"  />
<glyph unicode="&#xE4;" d="M345 228Q306 228 264 225T188 211T131 180T109 128Q109 108 116 96T136 75T164 64T196 61Q227 61 254 71T301 100T334 142T353 193L360 228H345ZM330 30Q330 38 331 45T334 66H332Q298 26 258 8T164 -10Q140 -10 114 -4T67 16T31 55T17 115Q17 173 49 208T131 263T245 289T370 296Q372 310 373 318T374 333Q374 375 348 393T274 412Q248 412 219 404T165 380Q154 374 148 372T135 370Q121 370 112 379T102 404Q102 414 107 423T126 442Q158 463 201 475T287 487Q321 487 352 480T408 456T448 412T463 347Q463 338 462 324T459 299L412 37Q409 22 404 13T393 0T379 -6T367 -8Q356 -8 343 -1T330 30ZM278 647Q278 622 262 605T220 587Q195 587 178 602T161 644Q161 671 179 688T222 705Q246 705 262 690T278 647ZM476 647Q476 622 460 605T417 587Q393 587 376 602T359 644Q359 671 377 688T420 705Q444 705 460 690T476 647Z"  />
<glyph unicode="&#xE5;" d="M345 228Q306 228 264 225T188 211T131 180T109 128Q109 108 116 96T136 75T164 64T196 61Q227 61 254 71T301 100T334 142T353 193L360 228H345ZM330 30Q330 38 331 45T334 66H332Q298 26 258 8T164 -10Q140 -10 114 -4T67 16T31 55T17 115Q17 173 49 208T131 263T245 289T370 296Q372 310 373 318T374 333Q374 375 348 393T274 412Q248 412 219 404T165 380Q154 374 148 372T135 370Q121 370 112 379T102 404Q102 414 107 423T126 442Q158 463 201 475T287 487Q321 487 352 480T408 456T448 412T463 347Q463 338 462 324T459 299L412 37Q409 22 404 13T393 0T379 -6T367 -8Q356 -8 343 -1T330 30ZM420 669Q420 620 389 587T309 553Q271 553 247 577T222 636Q222 660 230 680T253 717T288 742T333 751Q372 751 396 728T420 669ZM379 663Q379 684 366 699T330 714Q301 714 283 693T264 641Q264 620 276 606T312 591Q341 591 360 612T379 663Z"  />
<glyph unicode="&#xE6;" horiz-adv-x="885" d="M336 209Q289 209 248 206T176 194T128 169T110 128Q110 108 117 96T137 75T165 64T198 61Q265 61 306 97T357 191L360 209H336ZM735 277Q736 284 736 292T737 307Q737 353 707 383T619 414Q586 414 559 402T511 371T477 327T457 277H735ZM447 209Q446 204 446 201T445 193Q445 136 482 100T579 64Q618 64 648 77T704 112Q715 122 722 125T738 128Q755 128 764 118T774 93Q774 84 770 75T752 54Q675 -13 569 -13Q506 -13 457 16T387 95Q362 52 313 21T182 -10Q155 -10 126 -4T72 16T33 55T17 116Q17 171 48 203T130 251T244 272T371 277Q374 291 376 308T379 332Q379 377 352 394T280 412Q253 412 224 404T170 380Q159 374 153 372T140 370Q126 370 117 379T107 404Q107 414 112 423T131 442Q163 463 206 475T292 487Q352 487 392 466T446 400Q473 436 521 461T626 487Q717 487 770 438T824 299Q824 291 824 282T822 259Q819 234 807 222T768 209H447Z"  />
<glyph unicode="&#xE7;" horiz-adv-x="496" d="M191 -235Q172 -235 151 -232T113 -222Q100 -217 96 -211T92 -197Q92 -186 99 -178T118 -170Q124 -170 130 -172T144 -176Q153 -179 163 -181T188 -183Q213 -183 233 -173T253 -142Q253 -127 243 -118T212 -109Q201 -109 189 -112Q177 -115 170 -115Q160 -115 155 -109T149 -95Q149 -90 151 -85T160 -72L213 -9Q129 2 81 56T33 192Q33 251 53 304T111 398T202 463T320 487Q359 487 394 477T455 443Q469 430 473 421T477 403Q477 387 466 375T435 362Q427 362 420 365T401 377Q385 391 363 400T315 410Q274 410 240 394T180 349T141 283T127 203Q127 174 135 149T161 106T203 76T263 65Q292 65 317 75T366 102Q385 114 398 114Q415 114 425 104T435 78Q435 70 431 59T410 37Q381 16 346 3T265 -13L218 -69Q231 -66 244 -66Q274 -66 298 -82T323 -138Q323 -165 311 -183T279 -213T236 -230T191 -235Z"  />
<glyph unicode="&#xE8;" horiz-adv-x="565" d="M432 54Q355 -13 250 -13Q203 -13 163 1T93 42T47 108T30 197Q30 256 51 309T109 401T197 464T307 487Q398 487 451 438T504 299Q504 291 504 282T502 259Q499 234 487 222T448 209H122Q121 204 121 201T121 193Q121 165 131 142T160 101T204 74T259 64Q298 64 328 77T384 112Q395 122 402 125T418 128Q435 128 444 118T454 93Q454 84 450 75T432 54ZM415 277Q416 284 416 292T417 307Q417 353 387 383T300 414Q266 414 238 402T189 371T153 327T132 277H415ZM335 627Q348 614 351 606T354 592Q354 578 345 567T320 556Q312 556 304 559T284 573L207 647Q194 659 191 668T187 684Q187 700 197 710T225 722Q232 722 240 720T261 705L335 627Z"  />
<glyph unicode="&#xE9;" horiz-adv-x="565" d="M432 54Q355 -13 250 -13Q203 -13 163 1T93 42T47 108T30 197Q30 256 51 309T109 401T197 464T307 487Q398 487 451 438T504 299Q504 291 504 282T502 259Q499 234 487 222T448 209H122Q121 204 121 201T121 193Q121 165 131 142T160 101T204 74T259 64Q298 64 328 77T384 112Q395 122 402 125T418 128Q435 128 444 118T454 93Q454 84 450 75T432 54ZM415 277Q416 284 416 292T417 307Q417 353 387 383T300 414Q266 414 238 402T189 371T153 327T132 277H415ZM373 702Q388 716 397 719T414 722Q430 722 439 712T449 687Q449 679 445 670T424 646L339 574Q327 563 318 560T302 556Q285 556 276 566T267 590Q267 596 270 605T288 627L373 702Z"  />
<glyph unicode="&#xEA;" horiz-adv-x="565" d="M432 54Q355 -13 250 -13Q203 -13 163 1T93 42T47 108T30 197Q30 256 51 309T109 401T197 464T307 487Q398 487 451 438T504 299Q504 291 504 282T502 259Q499 234 487 222T448 209H122Q121 204 121 201T121 193Q121 165 131 142T160 101T204 74T259 64Q298 64 328 77T384 112Q395 122 402 125T418 128Q435 128 444 118T454 93Q454 84 450 75T432 54ZM415 277Q416 284 416 292T417 307Q417 353 387 383T300 414Q266 414 238 402T189 371T153 327T132 277H415ZM258 571Q242 556 227 556Q214 556 206 564T197 586Q197 593 200 600T215 617L307 696Q325 711 336 716T361 722Q372 722 383 718T407 696L472 615Q480 605 482 599T484 587Q483 573 474 565T453 556Q438 556 425 571L356 654L258 571Z"  />
<glyph unicode="&#xEB;" horiz-adv-x="565" d="M432 54Q355 -13 250 -13Q203 -13 163 1T93 42T47 108T30 197Q30 256 51 309T109 401T197 464T307 487Q398 487 451 438T504 299Q504 291 504 282T502 259Q499 234 487 222T448 209H122Q121 204 121 201T121 193Q121 165 131 142T160 101T204 74T259 64Q298 64 328 77T384 112Q395 122 402 125T418 128Q435 128 444 118T454 93Q454 84 450 75T432 54ZM415 277Q416 284 416 292T417 307Q417 353 387 383T300 414Q266 414 238 402T189 371T153 327T132 277H415ZM302 647Q302 622 286 605T244 587Q219 587 202 602T185 644Q185 671 203 688T246 705Q270 705 286 690T302 647ZM500 647Q500 622 484 605T441 587Q417 587 400 602T383 644Q383 671 401 688T444 705Q468 705 484 690T500 647Z"  />
<glyph unicode="&#xEC;" horiz-adv-x="259" d="M129 42Q126 25 120 15T107 0T92 -6T78 -8Q72 -8 65 -6T52 1T41 14T36 35Q36 37 36 42T39 59L105 432Q108 449 114 459T127 474T143 480T157 482Q168 482 183 473T198 439Q198 437 198 432T195 415L129 42H129ZM188 627Q201 614 204 606T207 592Q207 578 198 567T173 556Q165 556 157 559T137 573L60 647Q47 659 44 668T40 684Q40 700 50 710T78 722Q85 722 93 720T114 705L188 627Z"  />
<glyph unicode="&#xED;" horiz-adv-x="259" d="M129 42Q126 25 120 15T107 0T92 -6T78 -8Q72 -8 65 -6T52 1T41 14T36 35Q36 37 36 42T39 59L105 432Q108 449 114 459T127 474T143 480T157 482Q168 482 183 473T198 439Q198 437 198 432T195 415L129 42H129ZM247 702Q262 716 271 719T288 722Q304 722 313 712T323 687Q323 679 319 670T298 646L213 574Q201 563 192 560T176 556Q159 556 150 566T141 590Q141 596 144 605T162 627L247 702Z"  />
<glyph unicode="&#xEE;" horiz-adv-x="259" d="M129 42Q126 25 120 15T107 0T92 -6T78 -8Q72 -8 65 -6T52 1T41 14T36 35Q36 37 36 42T39 59L105 432Q108 449 114 459T127 474T143 480T157 482Q168 482 183 473T198 439Q198 437 198 432T195 415L129 42H129ZM94 571Q78 556 63 556Q50 556 42 564T33 586Q33 593 36 600T51 617L143 696Q161 711 172 716T197 722Q208 722 219 718T243 696L308 615Q316 605 318 599T320 587Q319 573 310 565T289 556Q274 556 261 571L192 654L94 571Z"  />
<glyph unicode="&#xEF;" horiz-adv-x="259" d="M129 42Q126 25 120 15T107 0T92 -6T78 -8Q72 -8 65 -6T52 1T41 14T36 35Q36 37 36 42T39 59L105 432Q108 449 114 459T127 474T143 480T157 482Q168 482 183 473T198 439Q198 437 198 432T195 415L129 42H129ZM143 647Q143 622 127 605T85 587Q60 587 43 602T26 644Q26 671 44 688T87 705Q111 705 127 690T143 647ZM341 647Q341 622 325 605T282 587Q258 587 241 602T224 644Q224 671 242 688T285 705Q309 705 325 690T341 647Z"  />
<glyph unicode="&#xF0;" horiz-adv-x="600" d="M325 760Q339 746 352 733T380 704L478 747Q489 752 498 752Q509 752 517 745T525 725Q525 717 520 709T501 694L421 658Q481 586 514 501T547 318Q547 258 531 199T481 93T392 16T259 -13Q210 -13 169 2T98 44T52 110T35 194Q35 251 55 304T111 397T200 462T315 487Q398 487 444 441L447 443Q429 493 403 536T339 621L239 577Q229 572 220 572Q208 572 201 579T193 599Q193 607 197 615T216 630L298 666Q281 684 262 702Q252 712 249 720T246 735Q246 752 258 764T289 777Q298 777 306 774T325 760ZM449 273Q449 302 440 327T413 370T370 399T313 410Q272 410 239 393T181 348T143 282T129 202Q129 142 164 104T264 65Q305 65 339 81T397 126T435 193T449 273Z"  />
<glyph unicode="&#xF1;" horiz-adv-x="581" d="M188 397Q214 438 254 462T346 487Q424 487 464 446T505 341Q505 316 501 293L456 42Q453 25 447 15T434 0T419 -6T405 -8Q399 -8 392 -6T379 1T368 14T363 35Q363 37 363 41T366 59L402 262Q404 276 406 289T408 315Q408 356 388 382T316 408Q260 408 219 366T165 252L128 42Q125 25 119 15T106 0T91 -6T77 -8Q71 -8 64 -6T51 1T40 14T35 35Q35 37 35 41T38 59L104 434Q107 450 113 459T126 474T140 480T153 482Q164 482 178 473T192 440Q192 439 192 436T191 428L186 397H188ZM413 643Q427 643 436 652T454 675Q462 688 470 693T486 698Q499 698 506 690T514 671Q514 666 513 660T507 645Q490 613 464 595T404 577Q385 577 369 583T334 599Q313 611 300 616T275 621Q261 621 252 612T234 589Q226 576 218 571T202 566Q189 566 182 574T174 593Q174 598 175 604T181 620Q215 687 285 687Q304 687 320 681T355 665Q375 653 388 648T413 643Z"  />
<glyph unicode="&#xF2;" horiz-adv-x="600" d="M539 282Q539 222 519 169T461 75T371 11T255 -13Q206 -13 165 2T94 44T47 110T30 194Q30 253 50 306T108 399T198 463T315 487Q364 487 405 472T476 430T522 366T539 282ZM445 273Q445 302 436 327T409 370T366 399T309 410Q268 410 234 393T176 348T138 282T124 202Q124 142 160 104T260 65Q301 65 335 81T393 126T431 193T445 273ZM346 627Q359 614 362 606T365 592Q365 578 356 567T331 556Q323 556 315 559T295 573L218 647Q205 659 202 668T198 684Q198 700 208 710T236 722Q243 722 251 720T272 705L346 627Z"  />
<glyph unicode="&#xF3;" horiz-adv-x="600" d="M539 282Q539 222 519 169T461 75T371 11T255 -13Q206 -13 165 2T94 44T47 110T30 194Q30 253 50 306T108 399T198 463T315 487Q364 487 405 472T476 430T522 366T539 282ZM445 273Q445 302 436 327T409 370T366 399T309 410Q268 410 234 393T176 348T138 282T124 202Q124 142 160 104T260 65Q301 65 335 81T393 126T431 193T445 273ZM390 702Q405 716 414 719T431 722Q447 722 456 712T466 687Q466 679 462 670T441 646L356 574Q344 563 335 560T319 556Q302 556 293 566T284 590Q284 596 287 605T305 627L390 702Z"  />
<glyph unicode="&#xF4;" horiz-adv-x="600" d="M539 282Q539 222 519 169T461 75T371 11T255 -13Q206 -13 165 2T94 44T47 110T30 194Q30 253 50 306T108 399T198 463T315 487Q364 487 405 472T476 430T522 366T539 282ZM445 273Q445 302 436 327T409 370T366 399T309 410Q268 410 234 393T176 348T138 282T124 202Q124 142 160 104T260 65Q301 65 335 81T393 126T431 193T445 273ZM268 571Q252 556 237 556Q224 556 216 564T207 586Q207 593 210 600T225 617L317 696Q335 711 346 716T371 722Q382 722 393 718T417 696L482 615Q490 605 492 599T494 587Q493 573 484 565T463 556Q448 556 435 571L366 654L268 571Z"  />
<glyph unicode="&#xF5;" horiz-adv-x="600" d="M539 282Q539 222 519 169T461 75T371 11T255 -13Q206 -13 165 2T94 44T47 110T30 194Q30 253 50 306T108 399T198 463T315 487Q364 487 405 472T476 430T522 366T539 282ZM445 273Q445 302 436 327T409 370T366 399T309 410Q268 410 234 393T176 348T138 282T124 202Q124 142 160 104T260 65Q301 65 335 81T393 126T431 193T445 273ZM418 643Q432 643 441 652T459 675Q467 688 475 693T491 698Q504 698 511 690T519 671Q519 666 518 660T512 645Q495 613 469 595T409 577Q390 577 374 583T339 599Q318 611 305 616T280 621Q266 621 257 612T239 589Q231 576 223 571T207 566Q194 566 187 574T179 593Q179 598 180 604T186 620Q220 687 290 687Q309 687 325 681T360 665Q380 653 393 648T418 643Z"  />
<glyph unicode="&#xF6;" horiz-adv-x="600" d="M539 282Q539 222 519 169T461 75T371 11T255 -13Q206 -13 165 2T94 44T47 110T30 194Q30 253 50 306T108 399T198 463T315 487Q364 487 405 472T476 430T522 366T539 282ZM445 273Q445 302 436 327T409 370T366 399T309 410Q268 410 234 393T176 348T138 282T124 202Q124 142 160 104T260 65Q301 65 335 81T393 126T431 193T445 273ZM310 647Q310 622 294 605T252 587Q227 587 210 602T193 644Q193 671 211 688T254 705Q278 705 294 690T310 647ZM508 647Q508 622 492 605T449 587Q425 587 408 602T391 644Q391 671 409 688T452 705Q476 705 492 690T508 647Z"  />
<glyph unicode="&#xF7;" horiz-adv-x="666" d="M398 469Q398 443 380 424T333 404Q305 404 287 423T268 469Q268 495 286 514T333 534Q361 534 379 515T398 469ZM398 132Q398 106 380 87T333 67Q305 67 287 86T268 132Q268 158 286 177T333 197Q361 197 379 178T398 132ZM116 262Q102 262 93 266T79 277T73 291T71 303Q71 308 72 315T79 328T93 339T116 344H550Q564 344 573 340T587 329T593 315T595 303Q595 298 594 291T587 278T573 267T550 262H116Z"  />
<glyph unicode="&#xF8;" horiz-adv-x="600" d="M539 282Q539 222 519 169T461 75T371 11T255 -13Q165 -13 105 35L63 -5Q53 -14 48 -15T38 -17Q27 -17 20 -10T13 8Q13 13 15 19T28 36L68 74Q50 99 40 129T30 194Q30 253 50 306T108 399T198 463T315 487Q399 487 458 445L494 479Q504 488 509 489T519 491Q530 491 537 484T544 466Q544 461 542 455T528 438L497 408Q539 357 539 282ZM445 273Q445 311 428 343L169 96Q205 65 260 65Q301 65 335 81T393 126T431 193T445 273ZM124 202Q124 166 136 139L393 383Q358 410 309 410Q268 410 234 393T176 348T138 282T124 202Z"  />
<glyph unicode="&#xF9;" horiz-adv-x="581" d="M360 77Q334 36 294 12T202 -13Q124 -13 84 28T43 133Q43 145 44 156T48 181L92 432Q95 449 101 459T114 474T129 480T143 482Q149 482 156 480T169 473T180 460T185 439Q185 437 185 433T182 415L146 212Q144 198 143 185T141 159Q141 118 160 92T232 66Q288 66 329 108T383 222L420 432Q423 449 429 459T442 474T457 480T471 482Q477 482 484 480T497 473T508 460T513 439Q513 437 513 433T510 415L444 40Q441 24 435 15T422 0T408 -6T395 -8Q384 -8 370 1T356 34Q356 35 356 38T357 46L362 77H360ZM326 627Q339 614 342 606T345 592Q345 578 336 567T311 556Q303 556 295 559T275 573L198 647Q185 659 182 668T178 684Q178 700 188 710T216 722Q223 722 231 720T252 705L326 627Z"  />
<glyph unicode="&#xFA;" horiz-adv-x="581" d="M360 77Q334 36 294 12T202 -13Q124 -13 84 28T43 133Q43 145 44 156T48 181L92 432Q95 449 101 459T114 474T129 480T143 482Q149 482 156 480T169 473T180 460T185 439Q185 437 185 433T182 415L146 212Q144 198 143 185T141 159Q141 118 160 92T232 66Q288 66 329 108T383 222L420 432Q423 449 429 459T442 474T457 480T471 482Q477 482 484 480T497 473T508 460T513 439Q513 437 513 433T510 415L444 40Q441 24 435 15T422 0T408 -6T395 -8Q384 -8 370 1T356 34Q356 35 356 38T357 46L362 77H360ZM386 702Q401 716 410 719T427 722Q443 722 452 712T462 687Q462 679 458 670T437 646L352 574Q340 563 331 560T315 556Q298 556 289 566T280 590Q280 596 283 605T301 627L386 702Z"  />
<glyph unicode="&#xFB;" horiz-adv-x="581" d="M360 77Q334 36 294 12T202 -13Q124 -13 84 28T43 133Q43 145 44 156T48 181L92 432Q95 449 101 459T114 474T129 480T143 482Q149 482 156 480T169 473T180 460T185 439Q185 437 185 433T182 415L146 212Q144 198 143 185T141 159Q141 118 160 92T232 66Q288 66 329 108T383 222L420 432Q423 449 429 459T442 474T457 480T471 482Q477 482 484 480T497 473T508 460T513 439Q513 437 513 433T510 415L444 40Q441 24 435 15T422 0T408 -6T395 -8Q384 -8 370 1T356 34Q356 35 356 38T357 46L362 77H360ZM249 571Q233 556 218 556Q205 556 197 564T188 586Q188 593 191 600T206 617L298 696Q316 711 327 716T352 722Q363 722 374 718T398 696L463 615Q471 605 473 599T475 587Q474 573 465 565T444 556Q429 556 416 571L347 654L249 571Z"  />
<glyph unicode="&#xFC;" horiz-adv-x="581" d="M360 77Q334 36 294 12T202 -13Q124 -13 84 28T43 133Q43 145 44 156T48 181L92 432Q95 449 101 459T114 474T129 480T143 482Q149 482 156 480T169 473T180 460T185 439Q185 437 185 433T182 415L146 212Q144 198 143 185T141 159Q141 118 160 92T232 66Q288 66 329 108T383 222L420 432Q423 449 429 459T442 474T457 480T471 482Q477 482 484 480T497 473T508 460T513 439Q513 437 513 433T510 415L444 40Q441 24 435 15T422 0T408 -6T395 -8Q384 -8 370 1T356 34Q356 35 356 38T357 46L362 77H360ZM296 647Q296 622 280 605T238 587Q213 587 196 602T179 644Q179 671 197 688T240 705Q264 705 280 690T296 647ZM494 647Q494 622 478 605T435 587Q411 587 394 602T377 644Q377 671 395 688T438 705Q462 705 478 690T494 647Z"  />
<glyph unicode="&#xFD;" horiz-adv-x="495" d="M172 -112Q154 -142 137 -165T101 -205T57 -231T3 -240Q-59 -240 -59 -199Q-59 -185 -49 -172T-13 -159H1Q33 -158 53 -138T97 -80L144 0L47 410Q45 421 44 425T43 435Q43 456 57 469T91 482Q102 482 116 475T136 444L207 102H209L411 449Q422 469 434 475T457 482Q476 482 487 471T499 441Q499 437 498 430T491 414L172 -112ZM356 702Q371 716 380 719T397 722Q413 722 422 712T432 687Q432 679 428 670T407 646L322 574Q310 563 301 560T285 556Q268 556 259 566T250 590Q250 596 253 605T271 627L356 702Z"  />
<glyph unicode="&#xFE;" horiz-adv-x="633" d="M571 281Q571 220 551 167T494 73T409 10T301 -13Q243 -13 201 11T136 77H134L86 -198Q83 -215 77 -225T64 -240T49 -246T35 -248Q23 -248 8 -239T-7 -205Q-7 -203 -7 -198T-4 -181L154 714Q157 731 163 741T176 756T191 762T205 764Q216 764 231 755T246 721Q246 719 246 714T243 697L190 398H192Q217 436 263 461T364 486Q411 486 449 471T514 429T556 365T571 281ZM475 272Q475 330 441 369T343 409Q304 409 270 393T210 348T170 281T155 201Q155 171 164 146T192 102T235 74T292 63Q333 63 367 79T425 124T462 190T475 272Z"  />
<glyph unicode="&#xFF;" horiz-adv-x="495" d="M172 -112Q154 -142 137 -165T101 -205T57 -231T3 -240Q-59 -240 -59 -199Q-59 -185 -49 -172T-13 -159H1Q33 -158 53 -138T97 -80L144 0L47 410Q45 421 44 425T43 435Q43 456 57 469T91 482Q102 482 116 475T136 444L207 102H209L411 449Q422 469 434 475T457 482Q476 482 487 471T499 441Q499 437 498 430T491 414L172 -112ZM263 647Q263 622 247 605T205 587Q180 587 163 602T146 644Q146 671 164 688T207 705Q231 705 247 690T263 647ZM461 647Q461 622 445 605T402 587Q378 587 361 602T344 644Q344 671 362 688T405 705Q429 705 445 690T461 647Z"  />
<glyph unicode="&#x110;" horiz-adv-x="757" d="M200 405H395Q418 405 425 394T432 373Q432 362 424 349T391 336H188L144 86H289Q369 86 429 112T531 183T592 283T613 400Q613 446 598 486T553 557T475 606T362 624H239L200 405ZM91 336H60Q37 336 30 347T23 367Q23 378 31 391T65 405H104L147 649Q152 679 166 693T212 708H386Q446 708 505 692T611 640T687 548T716 412Q716 319 684 243T593 113T456 30T284 0H97Q63 0 53 15T42 48Q42 50 42 54T44 67L91 336Z"  />
<glyph unicode="&#x131;" horiz-adv-x="259" d="M129 42Q126 25 120 15T107 0T92 -6T78 -8Q72 -8 65 -6T52 1T41 14T36 35Q36 37 36 42T39 59L105 432Q108 449 114 459T127 474T143 480T157 482Q168 482 183 473T198 439Q198 437 198 432T195 415L129 42H129Z"  />
<glyph unicode="&#x152;" horiz-adv-x="988" d="M383 0Q323 0 264 16T158 68T82 160T53 296Q53 389 85 465T176 595T313 678T485 708H955Q969 708 978 704T991 694T997 681T999 669Q999 662 997 654T990 639T975 627T949 622H657L620 408H887Q901 408 910 404T923 395T929 383T931 370Q931 364 929 356T922 341T907 330T882 325H605L563 87H871Q886 87 895 83T909 72T915 59T917 47Q917 41 915 33T908 17T892 5T866 0H383ZM562 624H480Q400 624 340 598T238 527T176 427T155 310Q155 264 170 223T215 152T293 104T406 86H467L562 624Z"  />
<glyph unicode="&#x153;" horiz-adv-x="970" d="M664 64Q704 64 734 77T789 112Q800 122 808 125T823 128Q840 128 849 118T859 93Q859 84 855 75T838 54Q761 -13 655 -13Q584 -13 536 15T465 92Q433 45 381 16T253 -13Q204 -13 163 2T93 44T47 110T30 194Q30 254 51 307T110 400T201 463T317 487Q386 487 433 459T504 379Q538 429 593 458T712 487Q803 487 856 438T909 299Q909 291 909 282T907 259Q904 234 892 222T853 209H527Q526 204 526 201T526 193Q526 165 536 142T566 101T610 74T664 64ZM445 273Q445 302 436 327T409 370T366 399T309 410Q269 410 235 393T177 348T138 282T124 202Q124 142 160 104T260 65Q300 65 334 81T392 126T431 193T445 273ZM820 277Q821 284 821 292T822 307Q822 353 792 383T705 414Q671 414 643 402T593 371T557 327T537 277H820Z"  />
<glyph unicode="&#x160;" horiz-adv-x="569" d="M101 123Q127 97 161 81T237 65Q267 65 296 73T347 98T382 139T396 197Q396 224 385 244T354 279T310 305T257 327Q226 339 197 354T146 390T111 440T98 509Q98 558 117 598T172 667T255 710T359 726Q407 726 449 712T522 672Q534 661 538 651T543 632Q543 615 531 601T499 587Q491 587 482 590T458 605Q435 622 409 633T349 644Q324 644 298 637T249 614T213 575T198 518Q198 495 206 478T230 448T266 425T312 405Q351 391 384 374T443 333T483 279T498 208Q498 159 480 118T427 46T343 -1T233 -18Q178 -18 125 -1T36 52Q24 63 20 73T16 94Q16 112 29 126T63 141Q71 141 80 138T101 123ZM462 907Q478 922 493 922Q506 922 514 914T523 892Q523 885 520 878T505 861L413 782Q395 767 384 762T359 756Q348 756 337 760T313 782L248 863Q240 873 238 879T236 891Q237 905 246 913T267 922Q281 922 295 907L364 824L462 907Z"  />
<glyph unicode="&#x161;" horiz-adv-x="444" d="M180 -15Q132 -15 92 -2T21 38Q7 50 3 60T-1 79Q-1 96 10 108T42 121Q50 121 58 118T76 106Q97 86 122 74T180 62Q222 62 253 79T284 132Q284 163 260 179T186 211Q158 220 135 230T95 255T69 290T59 339Q59 374 75 401T118 448T180 477T254 487Q295 487 327 477T383 446Q396 435 400 425T404 407Q404 390 393 379T364 367Q357 367 350 370T331 382Q314 396 294 404T246 413Q230 413 213 410T182 399T158 378T149 347Q149 317 171 304T234 280Q302 260 338 229T375 139Q375 100 358 71T314 23T251 -5T180 -15ZM370 707Q386 722 401 722Q414 722 422 714T431 692Q431 685 428 678T413 661L321 582Q303 567 292 562T267 556Q256 556 245 560T221 582L156 663Q148 673 146 679T144 691Q145 705 154 713T175 722Q189 722 203 707L272 624L370 707Z"  />
<glyph unicode="&#x178;" horiz-adv-x="560" d="M272 45Q265 9 249 1T219 -8Q213 -8 206 -6T192 2T180 16T175 38Q175 40 175 45T178 63L221 306L64 629Q57 642 55 650T52 666Q52 687 67 701T103 716Q114 716 126 710T148 683L284 386L544 686Q560 705 571 710T593 716Q612 716 624 704T637 673Q637 665 634 655T620 634L319 306L272 45ZM320 847Q320 822 304 805T262 787Q237 787 220 802T203 844Q203 871 221 888T264 905Q288 905 304 890T320 847ZM518 847Q518 822 502 805T459 787Q435 787 418 802T401 844Q401 871 419 888T462 905Q486 905 502 890T518 847Z"  />
<glyph unicode="&#x17D;" horiz-adv-x="580" d="M110 87H469Q483 87 492 83T506 72T512 59T514 47Q514 41 512 33T505 17T489 5T463 0H24Q6 0 -4 5T-21 18T-29 34T-31 48Q-31 59 -25 72T-2 103L475 622H153Q139 622 130 626T116 637T110 649T108 661Q108 668 110 676T117 691T133 703T159 708H559Q577 708 587 703T604 690T612 674T614 661Q614 650 608 637T585 605L110 87ZM472 907Q488 922 503 922Q516 922 524 914T533 892Q533 885 530 878T515 861L423 782Q405 767 394 762T369 756Q358 756 347 760T323 782L258 863Q250 873 248 879T246 891Q247 905 256 913T277 922Q291 922 305 907L374 824L472 907Z"  />
<glyph unicode="&#x17E;" horiz-adv-x="461" d="M319 398H104Q91 398 84 402T72 411T66 422T64 433Q64 439 66 446T73 459T86 469T109 474H405Q419 474 428 470T442 459T448 445T450 434Q450 426 446 415T426 389L110 78H349Q374 78 381 65T389 42Q389 36 387 29T380 16T366 5T343 0H25Q10 0 1 4T-13 16T-19 29T-21 41Q-21 50 -17 61T4 88L319 398ZM377 707Q393 722 408 722Q421 722 429 714T438 692Q438 685 435 678T420 661L328 582Q310 567 299 562T274 556Q263 556 252 560T228 582L163 663Q155 673 153 679T151 691Q152 705 161 713T182 722Q196 722 210 707L279 624L377 707Z"  />
<glyph unicode="&#x192;" horiz-adv-x="595" d="M11 -139Q0 -139 -11 -138T-31 -134Q-52 -127 -57 -115T-63 -94Q-62 -77 -51 -65T-21 -52Q-16 -52 -11 -53T-1 -56Q9 -59 22 -59Q43 -59 59 -51T87 -28T107 6T124 46L235 351H161Q137 351 130 363T123 384Q123 389 124 396T131 409T144 419T166 423H262L309 550Q321 584 338 615T378 669T433 706T505 720Q520 720 533 718T560 710Q580 702 585 691T590 670Q589 653 579 641T549 628Q540 628 528 632Q515 637 500 637Q476 637 459 626T430 599T410 564T395 528L356 423H435Q459 423 466 411T473 389Q473 378 465 365T430 351H330L212 30Q198 -7 180 -38T138 -91T82 -126T11 -139Z"  />
<glyph unicode="&#x2C6;" horiz-adv-x="250" d="M93 571Q77 556 62 556Q49 556 41 564T32 586Q32 593 35 600T50 617L142 696Q160 711 171 716T196 722Q207 722 218 718T242 696L307 615Q315 605 317 599T319 587Q318 573 309 565T288 556Q273 556 260 571L191 654L93 571Z"  />
<glyph unicode="&#x2C7;" horiz-adv-x="250" d="M273 707Q289 722 304 722Q317 722 325 714T334 692Q334 685 331 678T316 661L224 582Q206 567 195 562T170 556Q159 556 148 560T124 582L59 663Q51 673 49 679T47 691Q48 705 57 713T78 722Q92 722 106 707L175 624L273 707Z"  />
<glyph unicode="&#x2DA;" horiz-adv-x="250" d="M286 669Q286 620 255 587T175 553Q137 553 113 577T88 636Q88 660 96 680T119 717T154 742T199 751Q238 751 262 728T286 669ZM245 663Q245 684 232 699T196 714Q167 714 149 693T130 641Q130 620 142 606T178 591Q207 591 226 612T245 663Z"  />
<glyph unicode="&#x2DC;" horiz-adv-x="250" d="M252 643Q266 643 275 652T293 675Q301 688 309 693T325 698Q338 698 345 690T353 671Q353 666 352 660T346 645Q329 613 303 595T243 577Q224 577 208 583T173 599Q152 611 139 616T114 621Q100 621 91 612T73 589Q65 576 57 571T41 566Q28 566 21 574T13 593Q13 598 14 604T20 620Q54 687 124 687Q143 687 159 681T194 665Q214 653 227 648T252 643Z"  />
<glyph unicode="&#x2013;" horiz-adv-x="400" d="M59 207Q34 207 27 219T20 241Q20 247 21 254T28 267T41 277T64 282H336Q361 282 368 270T376 248Q376 242 374 235T367 222T354 212T331 207H59Z"  />
<glyph unicode="&#x2014;" horiz-adv-x="600" d="M59 207Q34 207 27 219T20 241Q20 247 21 254T28 267T41 277T64 282H536Q561 282 568 270T576 248Q576 242 574 235T567 222T554 212T531 207H59Z"  />
<glyph unicode="&#x2018;" horiz-adv-x="245" d="M173 483Q163 463 152 457T130 451Q114 451 103 461T91 489Q91 493 92 500T98 516L183 687Q193 707 203 711T223 716Q239 716 249 707T260 680Q260 675 259 669T253 653L173 483Z"  />
<glyph unicode="&#x2019;" horiz-adv-x="245" d="M170 684Q180 704 191 710T213 716Q229 716 240 706T252 678Q252 674 251 667T245 651L160 480Q150 460 140 456T120 451Q104 451 94 460T83 487Q83 492 84 498T90 514L170 684Z"  />
<glyph unicode="&#x201A;" horiz-adv-x="245" d="M66 92Q76 112 87 118T109 124Q125 124 136 114T148 86Q148 82 147 75T141 59L56 -112Q46 -132 36 -136T16 -141Q0 -141 -10 -132T-21 -105Q-21 -100 -20 -94T-14 -78L66 92Z"  />
<glyph unicode="&#x201C;" horiz-adv-x="424" d="M173 483Q163 463 152 457T130 451Q114 451 103 461T91 489Q91 493 92 500T98 516L183 687Q193 707 203 711T223 716Q239 716 249 707T260 680Q260 675 259 669T253 653L173 483ZM352 483Q342 463 331 457T309 451Q293 451 282 461T270 489Q270 493 271 500T277 516L362 687Q372 707 382 711T402 716Q418 716 428 707T439 680Q439 675 438 669T432 653L352 483Z"  />
<glyph unicode="&#x201D;" horiz-adv-x="424" d="M170 684Q180 704 191 710T213 716Q229 716 240 706T252 678Q252 674 251 667T245 651L160 480Q150 460 140 456T120 451Q104 451 94 460T83 487Q83 492 84 498T90 514L170 684ZM349 684Q359 704 370 710T392 716Q408 716 419 706T431 678Q431 674 430 667T424 651L339 480Q329 460 319 456T299 451Q283 451 273 460T262 487Q262 492 263 498T269 514L349 684Z"  />
<glyph unicode="&#x201E;" horiz-adv-x="424" d="M66 92Q76 112 87 118T109 124Q125 124 136 114T148 86Q148 82 147 75T141 59L56 -112Q46 -132 36 -136T16 -141Q0 -141 -10 -132T-21 -105Q-21 -100 -20 -94T-14 -78L66 92ZM245 92Q255 112 266 118T288 124Q304 124 315 114T327 86Q327 82 326 75T320 59L235 -112Q225 -132 215 -136T195 -141Q179 -141 169 -132T158 -105Q158 -100 159 -94T165 -78L245 92Z"  />
<glyph unicode="&#x2020;" horiz-adv-x="574" d="M366 505H528Q554 505 561 492T569 469Q569 457 560 442T523 427H352L262 -86Q259 -102 254 -111T241 -126T226 -132T213 -134Q202 -134 188 -125T173 -93Q173 -91 173 -86T176 -69L263 427H103Q76 427 69 439T61 463Q61 469 63 476T70 489T84 500T107 505H277L306 668Q309 684 315 693T328 708T342 714T355 716Q366 716 380 707T395 675Q395 669 392 651L366 505Z"  />
<glyph unicode="&#x2021;" horiz-adv-x="574" d="M262 -86Q259 -102 253 -111T240 -126T226 -132T213 -134Q202 -134 188 -125T173 -93Q173 -91 173 -86T176 -69L199 63H47Q20 63 12 76T4 99Q4 105 6 112T13 125T27 136T51 141H213L266 442H114Q87 442 79 454T71 477Q71 483 73 490T80 504T94 515T118 520H279L306 668Q309 684 315 693T328 708T342 714T355 716Q366 716 380 707T395 675Q395 669 392 651L369 520H522Q548 520 556 507T564 484Q564 472 555 457T517 442H355L302 141H455Q482 141 489 128T497 105Q497 99 495 92T488 79T474 68T451 63H289L262 -86Z"  />
<glyph unicode="&#x2022;" horiz-adv-x="500" d="M73 354Q73 391 87 423T125 479T181 517T250 531Q287 531 319 517T375 479T413 423T427 354Q427 317 413 285T375 229T319 191T250 177Q213 177 181 191T125 229T87 285T73 354Z"  />
<glyph unicode="&#x2026;" horiz-adv-x="1000" d="M188 61Q188 35 169 15T124 -5Q98 -5 79 11T60 57Q60 86 80 104T126 123Q152 123 170 107T188 61ZM522 61Q522 35 503 15T458 -5Q432 -5 413 11T394 57Q394 86 414 104T460 123Q486 123 504 107T522 61ZM856 61Q856 35 837 15T792 -5Q766 -5 747 11T728 57Q728 86 748 104T794 123Q820 123 838 107T856 61Z"  />
<glyph unicode="&#x2030;" horiz-adv-x="1041" d="M124 -12Q114 -26 106 -29T90 -32Q76 -32 67 -23T58 0Q58 4 59 10T67 25L553 709Q562 723 570 726T586 729Q600 729 609 720T618 697Q618 693 617 687T609 672L124 -12ZM362 590Q362 551 349 517T312 458T255 419T183 404Q152 404 126 414T81 441T52 483T41 537Q41 576 54 609T92 667T149 706T222 721Q285 721 323 685T362 590ZM282 578Q282 607 264 627T214 647Q174 647 148 618T122 546Q122 517 140 498T189 478Q231 478 256 507T282 578ZM658 176Q658 137 645 103T608 44T551 5T479 -10Q448 -10 422 0T377 27T348 69T337 123Q337 162 350 195T388 253T445 292T518 307Q581 307 619 271T658 176ZM578 164Q578 193 560 213T510 233Q470 233 444 204T418 132Q418 103 436 84T485 64Q527 64 552 93T578 164ZM1012 176Q1012 137 999 103T962 44T905 5T833 -10Q802 -10 776 0T731 27T702 69T691 123Q691 162 704 195T742 253T799 292T872 307Q935 307 973 271T1012 176ZM932 164Q932 193 914 213T864 233Q824 233 798 204T772 132Q772 103 790 84T839 64Q881 64 906 93T932 164Z"  />
<glyph unicode="&#x2039;" horiz-adv-x="306" d="M50 214Q42 231 42 243Q42 249 44 256T57 276L191 433Q201 445 208 448T224 452Q238 452 248 443T258 418Q258 413 256 406T245 388L121 240L192 99Q197 90 198 85T199 74Q199 57 188 47T162 37Q154 37 146 40T130 58L50 214Z"  />
<glyph unicode="&#x203A;" horiz-adv-x="306" d="M235 273Q243 256 243 244Q243 238 241 231T228 211L94 54Q84 42 77 39T61 35Q47 35 37 44T27 69Q27 74 29 81T40 99L164 247L93 388Q88 397 87 402T86 413Q86 430 97 440T123 450Q131 450 139 447T155 429L235 273Z"  />
<glyph unicode="&#x20AC;" horiz-adv-x="595" d="M491 9Q432 -18 359 -18Q293 -18 244 2T161 57T110 135T90 229H59Q35 229 28 241T21 261Q21 272 29 286T63 300H90Q91 317 96 346T110 407H92Q68 407 61 419T54 439Q54 444 56 451T62 464T75 474T96 478H132Q152 530 184 575T260 654T354 707T465 726Q531 726 571 709Q592 700 598 690T604 668Q604 651 593 638T561 625Q549 625 529 632Q518 636 500 639T455 643Q417 643 383 631T320 596T268 544T229 478H466Q490 478 497 466T504 446Q504 435 496 421T462 407H203Q199 396 196 382T190 353T186 324T184 300H387Q412 300 418 288T425 268Q425 257 417 243T383 229H183Q184 193 197 163T235 111T294 77T371 64Q394 64 417 68T463 83Q478 89 487 89Q504 89 514 79T524 52Q524 41 518 30T491 9Z"  />
<glyph unicode="&#x2122;" horiz-adv-x="1000" d="M160 636Q134 636 127 649T120 672Q120 681 127 694T160 708H433Q459 708 466 695T473 672Q473 663 466 650T433 636H338V333Q338 319 334 310T323 296T309 290T297 288Q292 288 285 289T272 296T262 310T257 333V636H160ZM548 661Q548 678 553 688T566 705T582 713T597 715Q611 715 625 708T650 674L779 389L907 674Q918 699 932 707T959 715Q965 715 973 713T990 705T1003 689T1009 661V333Q1009 319 1005 310T994 296T980 290T968 288Q963 288 956 289T943 296T932 310T927 333V544H926L823 323Q812 300 801 294T778 287Q767 287 756 293T733 323L631 544H629V333Q629 319 625 310T614 296T600 290T588 288Q583 288 576 289T563 296T553 310T548 333V661Z"  />

</font>
</defs>
</svg>
